<svg xmlns="http://www.w3.org/2000/svg" width="464.19" height="655.94" viewBox="0 0 464.19 655.94">
  <defs>
    <style>
      .cls-1 {
        fill: #231f20;
      }

      .cls-2, .cls-4 {
        fill: #fff;
      }

      .cls-2, .cls-3, .cls-4 {
        stroke: #231f20;
        stroke-miterlimit: 10;
      }

      .cls-3 {
        fill: none;
      }

      .cls-4 {
        stroke-width: 0.25px;
      }
    </style>
  </defs>
  <g id="Layer_185" data-name="Layer 185">
    <path class="cls-1" d="M470,86.44a0,0,0,0,0,0,0,0,0,0,0,0,0,0Z" transform="translate(-5.8 -86.41)"/>
    <path class="cls-1" d="M5.81,742.35s0,0,0,0,0,0,0,0Z" transform="translate(-5.8 -86.41)"/>
  </g>
  <g id="M_eyes_dumb" data-name="M eyes dumb">
    <ellipse id="right_eyeball" data-name="right eyeball" class="cls-2" cx="318.89" cy="323.93" rx="40.01" ry="47.42"/>
    <g id="right_pupil" data-name="right pupil">
      <ellipse class="cls-1" cx="338.22" cy="304.9" rx="13.51" ry="11.87"/>
      <ellipse class="cls-3" cx="338.22" cy="304.9" rx="13.51" ry="11.87"/>
    </g>
    <path id="right_speck" data-name="right speck" class="cls-4" d="M338.13,386.1l.61.61c-.89.68-1.89,1-2.22.63s.12-1.17,1-1.85,1.88-1,2.21-.62.06.82-.5,1.4Z" transform="translate(-5.8 -86.41)"/>
    <ellipse id="left_eyeball" data-name="left eyeball" class="cls-2" cx="233.35" cy="325.47" rx="40.01" ry="47.42"/>
    <g id="left_pupil" data-name="left pupil">
      <ellipse class="cls-1" cx="223.68" cy="354.5" rx="13.51" ry="11.87"/>
      <ellipse class="cls-3" cx="223.68" cy="354.5" rx="13.51" ry="11.87"/>
    </g>
    <path id="left_speck" data-name="left speck" class="cls-4" d="M223.9,436.06l.6.61c-.88.68-1.88,1-2.22.62s.13-1.16,1-1.84,1.88-1,2.22-.63.05.82-.51,1.4Z" transform="translate(-5.8 -86.41)"/>
  </g>
</svg>
