<svg xmlns="http://www.w3.org/2000/svg" xmlns:xlink="http://www.w3.org/1999/xlink" width="565.11" height="551.24" viewBox="0 0 565.11 551.24">
  <defs>
    <style>
      .cls-1, .cls-2 {
        fill: none;
      }

      .cls-1, .cls-10, .cls-11, .cls-12, .cls-13, .cls-14, .cls-15, .cls-16, .cls-2, .cls-3, .cls-4, .cls-5, .cls-6, .cls-7, .cls-8, .cls-9 {
        stroke: #231f20;
        stroke-miterlimit: 10;
      }

      .cls-1 {
        stroke-width: 0px;
      }

      .cls-2 {
        stroke-width: 0.01px;
      }

      .cls-3 {
        fill: #fff;
      }

      .cls-4, .cls-5, .cls-6 {
        stroke-width: 0.63px;
      }

      .cls-4 {
        fill: url(#linear-gradient);
      }

      .cls-5 {
        fill: #df8e7e;
      }

      .cls-6 {
        fill: url(#linear-gradient-2);
      }

      .cls-10, .cls-7, .cls-8 {
        stroke-width: 0.62px;
      }

      .cls-7 {
        fill: url(#linear-gradient-3);
      }

      .cls-8, .cls-9 {
        fill: #725ba7;
      }

      .cls-9 {
        stroke-width: 0.62px;
      }

      .cls-10 {
        fill: url(#linear-gradient-4);
      }

      .cls-11, .cls-12, .cls-13 {
        stroke-width: 0.53px;
      }

      .cls-11 {
        fill: url(#linear-gradient-5);
      }

      .cls-12 {
        fill: #785936;
      }

      .cls-13 {
        fill: url(#linear-gradient-6);
      }

      .cls-14, .cls-15, .cls-16 {
        stroke-width: 0.61px;
      }

      .cls-14 {
        fill: url(#linear-gradient-7);
      }

      .cls-15 {
        fill: #8b5e3c;
      }

      .cls-16 {
        fill: url(#linear-gradient-8);
      }
    </style>
    <linearGradient id="linear-gradient" x1="232.68" y1="414.55" x2="259.98" y2="402.4" gradientUnits="userSpaceOnUse">
      <stop offset="0" stop-color="#f1ccc5"/>
      <stop offset="0.18" stop-color="#eec1bb"/>
      <stop offset="0.3" stop-color="#ecb7b1"/>
      <stop offset="0.52" stop-color="#ecb7b0"/>
      <stop offset="0.69" stop-color="#ecb5ae"/>
    </linearGradient>
    <linearGradient id="linear-gradient-2" x1="320.9" y1="414.26" x2="348.2" y2="402.11" xlink:href="#linear-gradient"/>
    <linearGradient id="linear-gradient-3" x1="318.54" y1="409.38" x2="349.15" y2="409.38" gradientUnits="userSpaceOnUse">
      <stop offset="0" stop-color="#7cc791"/>
      <stop offset="0.11" stop-color="#71c488"/>
      <stop offset="0.29" stop-color="#54bc71"/>
      <stop offset="0.3" stop-color="#52bb6f"/>
      <stop offset="0.52" stop-color="#0eb251"/>
      <stop offset="0.69" stop-color="#1ab24b"/>
    </linearGradient>
    <linearGradient id="linear-gradient-4" x1="230.25" y1="409.66" x2="260.86" y2="409.66" xlink:href="#linear-gradient-3"/>
    <linearGradient id="linear-gradient-5" x1="318.53" y1="409.35" x2="349.15" y2="409.35" gradientUnits="userSpaceOnUse">
      <stop offset="0" stop-color="#af5a3c"/>
      <stop offset="0.09" stop-color="#a4583a"/>
      <stop offset="0.24" stop-color="#875234"/>
      <stop offset="0.3" stop-color="#794f31"/>
      <stop offset="0.52" stop-color="#6a4c2f"/>
      <stop offset="0.69" stop-color="#694a2d"/>
    </linearGradient>
    <linearGradient id="linear-gradient-6" x1="230.23" y1="409.64" x2="260.84" y2="409.64" xlink:href="#linear-gradient-5"/>
    <linearGradient id="linear-gradient-7" x1="318.53" y1="409.37" x2="349.17" y2="409.37" gradientUnits="userSpaceOnUse">
      <stop offset="0" stop-color="#dca680"/>
      <stop offset="0.12" stop-color="#d19e78"/>
      <stop offset="0.3" stop-color="#b88c64"/>
      <stop offset="0.52" stop-color="#af825a"/>
      <stop offset="0.69" stop-color="#a97c50"/>
    </linearGradient>
    <linearGradient id="linear-gradient-8" x1="230.22" y1="409.72" x2="260.85" y2="409.72" xlink:href="#linear-gradient-7"/>
  </defs>
  <g id="Layer_115" data-name="Layer 115">
    <circle class="cls-1" cx="565.05" cy="0.06" r="0.06"/>
    <ellipse class="cls-2" cx="0.03" cy="550.79" rx="0.02" ry="0.45"/>
  </g>
  <g id="M_boob_eyes_brown" data-name="M boob eyes brown">
    <ellipse id="right_eyeball" data-name="right eyeball" class="cls-3" cx="368.7" cy="273.24" rx="40.01" ry="47.42"/>
    <ellipse id="left_eyeball" data-name="left eyeball" class="cls-3" cx="283.16" cy="274.77" rx="40.01" ry="47.42"/>
    <path class="cls-4" d="M254,397.36c10.6,6.15,9.59,24-8.05,24.8-14.22.37-22.11-16.66-8.7-24.76a22.88,22.88,0,0,0,10.36,1.51A22.38,22.38,0,0,0,254,397.36Z" transform="translate(43.96 -137.04)"/>
    <path class="cls-5" d="M237.25,397.39h0a17.39,17.39,0,0,1,6.33-2,18.36,18.36,0,0,1,10.35,1.94,22.49,22.49,0,0,1-8.16,1.63A22.27,22.27,0,0,1,237.25,397.39Z" transform="translate(43.96 -137.04)"/>
    <path class="cls-5" d="M243.89,395.31c.21-1.66,2.93-1.86,4-.8a1,1,0,0,1,.28.47c.07.3,0,.31.09.45a2.1,2.1,0,0,0,.55.21c.49.18.9.41.8.83-.3.54-2.21.78-3.28.77a10.25,10.25,0,0,1-2.37-.14c-.68-.14-2-.56-1.23-1.26a2.51,2.51,0,0,1,1.13-.45S243.91,395.35,243.89,395.31Z" transform="translate(43.96 -137.04)"/>
    <path class="cls-6" d="M342.18,397.08c10.6,6.14,9.59,24-8.05,24.79-14.22.37-22.11-16.66-8.69-24.75a23,23,0,0,0,10.35,1.5A22,22,0,0,0,342.18,397.08Z" transform="translate(43.96 -137.04)"/>
    <path class="cls-5" d="M325.47,397.1h0a17.52,17.52,0,0,1,6.33-2,18.39,18.39,0,0,1,10.35,1.93,22.39,22.39,0,0,1-16.68,0Z" transform="translate(43.96 -137.04)"/>
    <path class="cls-5" d="M332.11,395c.21-1.67,2.93-1.87,4-.8a.92.92,0,0,1,.28.47c.07.29,0,.3.09.45a2.73,2.73,0,0,0,.55.2c.49.18.91.41.8.83-.3.54-2.21.79-3.28.77a9.6,9.6,0,0,1-2.36-.14c-.69-.13-2-.55-1.24-1.25a2.54,2.54,0,0,1,1.13-.46S332.13,395.06,332.11,395Z" transform="translate(43.96 -137.04)"/>
    <path class="cls-7" d="M342.28,397.07c10.64,6.1,9.63,23.82-8.09,24.62-14.27.37-22.19-16.54-8.72-24.58a23.35,23.35,0,0,0,10.39,1.49A22.61,22.61,0,0,0,342.28,397.07Z" transform="translate(43.96 -137.04)"/>
    <path class="cls-8" d="M325.5,397.09h0a17.6,17.6,0,0,1,6.36-2,18.51,18.51,0,0,1,10.38,1.92,22.68,22.68,0,0,1-16.74,0Z" transform="translate(43.96 -137.04)"/>
    <path class="cls-9" d="M332.17,395c.21-1.65,2.94-1.85,4-.8a1,1,0,0,1,.28.47c.07.29,0,.3.09.45a2.35,2.35,0,0,0,.55.2c.49.18.91.41.8.82-.3.54-2.22.78-3.3.77a9.72,9.72,0,0,1-2.37-.14c-.69-.13-2-.55-1.23-1.24a2.49,2.49,0,0,1,1.13-.46S332.19,395.05,332.17,395Z" transform="translate(43.96 -137.04)"/>
    <path class="cls-10" d="M254,397.35c10.65,6.1,9.63,23.82-8.08,24.62-14.28.37-22.2-16.54-8.73-24.58a23.23,23.23,0,0,0,10.4,1.49A22.62,22.62,0,0,0,254,397.35Z" transform="translate(43.96 -137.04)"/>
    <path class="cls-8" d="M237.21,397.38h0a17.67,17.67,0,0,1,6.36-2A18.7,18.7,0,0,1,254,397.33a22.46,22.46,0,0,1-8.19,1.62A22.74,22.74,0,0,1,237.21,397.38Z" transform="translate(43.96 -137.04)"/>
    <path class="cls-9" d="M243.88,395.31c.21-1.66,3-1.86,4-.8a.92.92,0,0,1,.28.47c.07.29,0,.3.09.44a2.74,2.74,0,0,0,.55.21c.49.17.91.4.8.82-.29.54-2.21.78-3.29.76a9.68,9.68,0,0,1-2.37-.14c-.69-.13-2-.55-1.24-1.24a2.51,2.51,0,0,1,1.13-.45C243.86,395.38,243.91,395.34,243.88,395.31Z" transform="translate(43.96 -137.04)"/>
    <path class="cls-11" d="M342.28,397.05c10.64,6.1,9.63,23.8-8.09,24.6-14.28.37-22.2-16.53-8.73-24.56a23.23,23.23,0,0,0,10.4,1.49A22.7,22.7,0,0,0,342.28,397.05Z" transform="translate(43.96 -137.04)"/>
    <path class="cls-12" d="M325.5,397.08h0a17.61,17.61,0,0,1,6.35-2A18.7,18.7,0,0,1,342.24,397a22.41,22.41,0,0,1-8.19,1.62A22.64,22.64,0,0,1,325.5,397.08Z" transform="translate(43.96 -137.04)"/>
    <path class="cls-12" d="M332.17,395c.21-1.65,2.94-1.85,4-.8a1,1,0,0,1,.28.47c.06.29,0,.3.09.44a2,2,0,0,0,.55.21c.49.18.9.4.79.82-.29.54-2.21.78-3.29.77a10.8,10.8,0,0,1-2.37-.14c-.69-.14-2-.56-1.24-1.25a2.51,2.51,0,0,1,1.14-.45S332.19,395.05,332.17,395Z" transform="translate(43.96 -137.04)"/>
    <path class="cls-13" d="M254,397.34c10.65,6.09,9.63,23.8-8.08,24.6-14.28.37-22.2-16.53-8.73-24.56a23.52,23.52,0,0,0,10.4,1.49A22.62,22.62,0,0,0,254,397.34Z" transform="translate(43.96 -137.04)"/>
    <path class="cls-12" d="M237.19,397.36h0a17.6,17.6,0,0,1,6.36-2,18.52,18.52,0,0,1,10.39,1.92,22.7,22.7,0,0,1-16.75,0Z" transform="translate(43.96 -137.04)"/>
    <path class="cls-12" d="M243.86,395.3c.21-1.65,2.95-1.85,4-.79a.92.92,0,0,1,.28.47c.07.29,0,.29.09.44a2.09,2.09,0,0,0,.55.2c.49.18.91.41.8.83-.29.54-2.21.77-3.29.76a9.68,9.68,0,0,1-2.37-.14c-.69-.13-2-.55-1.24-1.24a2.4,2.4,0,0,1,1.13-.45S243.88,395.33,243.86,395.3Z" transform="translate(43.96 -137.04)"/>
    <path class="cls-14" d="M342.29,397.06c10.66,6.1,9.64,23.82-8.09,24.62-14.29.37-22.21-16.54-8.73-24.59a23.2,23.2,0,0,0,10.4,1.5A22.61,22.61,0,0,0,342.29,397.06Z" transform="translate(43.96 -137.04)"/>
    <path class="cls-15" d="M325.5,397.08h0a17.41,17.41,0,0,1,6.36-2,18.57,18.57,0,0,1,10.4,1.92,22.73,22.73,0,0,1-16.76,0Z" transform="translate(43.96 -137.04)"/>
    <path class="cls-15" d="M332.18,395c.21-1.65,2.94-1.85,4-.8a1,1,0,0,1,.28.47c.07.29,0,.3.09.45a2.35,2.35,0,0,0,.55.2c.49.18.91.41.8.82-.3.54-2.22.78-3.3.77a10.21,10.21,0,0,1-2.37-.14c-.69-.13-2-.55-1.24-1.24a2.42,2.42,0,0,1,1.14-.46S332.2,395.05,332.18,395Z" transform="translate(43.96 -137.04)"/>
    <path class="cls-16" d="M254,397.4c10.65,6.11,9.64,23.83-8.09,24.63-14.29.37-22.22-16.54-8.74-24.59a23.25,23.25,0,0,0,10.41,1.5A22.23,22.23,0,0,0,254,397.4Z" transform="translate(43.96 -137.04)"/>
    <path class="cls-15" d="M237.19,397.43h0a17.58,17.58,0,0,1,6.36-2,18.59,18.59,0,0,1,10.39,1.93,22.7,22.7,0,0,1-16.75,0Z" transform="translate(43.96 -137.04)"/>
    <path class="cls-15" d="M243.86,395.37c.21-1.66,2.95-1.85,4-.8a1,1,0,0,1,.28.47c.07.29,0,.3.09.44a2.17,2.17,0,0,0,.56.21c.48.18.9.4.79.82-.29.54-2.21.78-3.29.77a10.34,10.34,0,0,1-2.38-.14c-.68-.13-2-.55-1.23-1.24a2.38,2.38,0,0,1,1.13-.46S243.88,395.4,243.86,395.37Z" transform="translate(43.96 -137.04)"/>
  </g>
</svg>
