<svg xmlns="http://www.w3.org/2000/svg" width="565.11" height="551.24" viewBox="0 0 565.11 551.24">
  <defs>
    <style>
      .cls-1, .cls-2, .cls-4, .cls-5 {
        fill: none;
      }

      .cls-1, .cls-2, .cls-3, .cls-4, .cls-5 {
        stroke: #231f20;
        stroke-miterlimit: 10;
      }

      .cls-1 {
        stroke-width: 0px;
      }

      .cls-2 {
        stroke-width: 0.01px;
      }

      .cls-3 {
        fill: #fff;
        stroke-width: 0.99px;
      }

      .cls-4 {
        stroke-width: 0.25px;
      }

      .cls-5 {
        stroke-width: 0.24px;
      }
    </style>
  </defs>
  <g id="Layer_115" data-name="Layer 115">
    <circle class="cls-1" cx="565.05" cy="0.06" r="0.06"/>
    <ellipse class="cls-2" cx="0.03" cy="550.79" rx="0.02" ry="0.45"/>
  </g>
  <g id="M_eyes_cursed" data-name="M eyes cursed">
    <ellipse id="right_eyeball" data-name="right eyeball" class="cls-3" cx="368.65" cy="273.28" rx="39.38" ry="47.42"/>
    <path class="cls-4" d="M295.82,442.59A9.91,9.91,0,0,1,300.2,439a27.17,27.17,0,0,0,2.92-1.14,3.37,3.37,0,0,0,1.89-2.37" transform="translate(43.96 -137.04)"/>
    <path class="cls-4" d="M289.61,430.77a16.89,16.89,0,0,0,9-5.77,2.16,2.16,0,0,1,1.05-.94c.46-.13,1.06.31.88.76" transform="translate(43.96 -137.04)"/>
    <path class="cls-4" d="M285.7,409.26a10,10,0,0,0,4,3.73,2.9,2.9,0,0,0,2.62.28,7.14,7.14,0,0,0,1.26-1.14,1.4,1.4,0,0,1,1.54-.39" transform="translate(43.96 -137.04)"/>
    <path class="cls-4" d="M287.14,396.34a14.08,14.08,0,0,0,7,1.19,1.93,1.93,0,0,1,.76,0,1.86,1.86,0,0,1,.7.55l2,2.21" transform="translate(43.96 -137.04)"/>
    <path class="cls-5" d="M294.53,381.74a4.49,4.49,0,0,0,3.12,2.64,12.82,12.82,0,0,0,4.15.19l.9,1.68" transform="translate(43.96 -137.04)"/>
    <path class="cls-5" d="M306.19,369.28c-.07,1.66,1,3.12,2.06,4.34a3.89,3.89,0,0,1,.69.92c.49,1,0,2.28.21,3.42" transform="translate(43.96 -137.04)"/>
    <path class="cls-5" d="M318.94,363c.18.94-.42,1.88-.32,2.83s1,1.73,1.44,2.63a3.65,3.65,0,0,1-.51,4" transform="translate(43.96 -137.04)"/>
    <path class="cls-5" d="M330.49,362.59l1,2.19a5.53,5.53,0,0,1,.74,2.69c-.09,1.18-.92,2.16-1.26,3.29a8.12,8.12,0,0,0-.11,3.11" transform="translate(43.96 -137.04)"/>
    <path class="cls-5" d="M343.12,367.58a28,28,0,0,0,.23,5.86,1.68,1.68,0,0,1,0,.67,1.46,1.46,0,0,1-.73.74l-2.18,1.32" transform="translate(43.96 -137.04)"/>
    <path class="cls-5" d="M352.32,377.17l-1.79,2.33a5.54,5.54,0,0,0-1.23,2.27,9,9,0,0,0,0,2.07,2.52,2.52,0,0,1-.57,1.93l-.93,0" transform="translate(43.96 -137.04)"/>
    <path class="cls-4" d="M362.31,396a6.29,6.29,0,0,1-3.5,1.11,2.11,2.11,0,0,1-.82-.13,3.48,3.48,0,0,1-.85-.69,4.27,4.27,0,0,0-4.52-.78" transform="translate(43.96 -137.04)"/>
    <path class="cls-4" d="M363.15,417.52a2,2,0,0,1-1.09-.61L359.89,415c-.62-.55-1.38-1.13-2.17-.93-.52.14-.9.59-1.4.79s-1.27-.08-1.17-.62" transform="translate(43.96 -137.04)"/>
    <path class="cls-4" d="M358.7,434.14l-3.2-.77a1.75,1.75,0,0,1-1-.48,2,2,0,0,1-.24-1.32,9,9,0,0,0-2.94-6.82" transform="translate(43.96 -137.04)"/>
    <path class="cls-4" d="M349.4,447c-.72-1.42-1.45-3.16-.67-4.55.52-.91,1.65-1.59,1.57-2.63l-3.52-1.26" transform="translate(43.96 -137.04)"/>
    <path class="cls-5" d="M338.11,453.84a6.49,6.49,0,0,1-.29-3.23c.12-.51.36-1.07.1-1.52a1.57,1.57,0,0,0-1-.58c-1.11-.39-2.27-1.39-2-2.58a2.55,2.55,0,0,1,1.47-1.56" transform="translate(43.96 -137.04)"/>
    <path class="cls-5" d="M325.16,456.76c-.06-1.16-.06-2.51.79-3.26.47-.41,1.1-.56,1.59-.94a3.09,3.09,0,0,0,.77-3.27,8.74,8.74,0,0,0-1.89-3" transform="translate(43.96 -137.04)"/>
    <path class="cls-5" d="M314.64,454.68a4.48,4.48,0,0,0,.74-2.52,5.73,5.73,0,0,1,.09-2.15c.12-.28.31-.53.41-.82a6.4,6.4,0,0,0,.05-1.52c0-.51.38-1.09.87-1" transform="translate(43.96 -137.04)"/>
    <path class="cls-5" d="M305.14,449.69l2.74-3a3.29,3.29,0,0,0,1.09-1.93,2.17,2.17,0,0,1,.1-.88,1,1,0,0,1,.47-.39,3.44,3.44,0,0,1,1.89-.37" transform="translate(43.96 -137.04)"/>
    <ellipse id="left_eyeball" data-name="left eyeball" class="cls-3" cx="283.46" cy="274.66" rx="39.38" ry="47.42"/>
    <path class="cls-5" d="M224.28,368.28c0,1.14,1.05,2,1.27,3.1a10.34,10.34,0,0,1,0,1.76,1.65,1.65,0,0,0,.72,1.49" transform="translate(43.96 -137.04)"/>
    <path class="cls-5" d="M211.34,379.24a5.39,5.39,0,0,0,3.43,1.63c1.3.09,2.74-.28,3.83.47" transform="translate(43.96 -137.04)"/>
    <path class="cls-4" d="M200.16,410.55c1.68-.58,3.58-1.15,5.15-.31,1.11.61,1.88,1.87,3.12,2.12a3.79,3.79,0,0,0,2.42-.53" transform="translate(43.96 -137.04)"/>
    <path class="cls-4" d="M202.05,426.22a4,4,0,0,1,.59,1.52,3.88,3.88,0,0,0,1.82-1.38.85.85,0,0,1,.32-.33c.29-.12.6.16.75.44s.29.63.58.75c.55.22,1-.46,1.39-.88,1.07-1.09,3.22-.84,3.84-2.24" transform="translate(43.96 -137.04)"/>
    <path class="cls-4" d="M210.25,442.84l1-2.34a.91.91,0,0,1,.28-.41,1,1,0,0,1,.62-.09,3.64,3.64,0,0,0,3.46-2.26" transform="translate(43.96 -137.04)"/>
    <path class="cls-5" d="M242.64,364.47a4.32,4.32,0,0,0-.58,3c.08.42.22.83.26,1.26a5,5,0,0,1-1.51,3.32" transform="translate(43.96 -137.04)"/>
    <path class="cls-5" d="M268.26,380c-1.21,1.06-.88,5.05-.95,3.94.09,1.41.14,3-.85,4" transform="translate(43.96 -137.04)"/>
    <path class="cls-4" d="M276.68,394.81c-3.45,0-1.45,2-3.48,3.71-.29.24-.64.39-.94.62a4.58,4.58,0,0,0-1,1.18" transform="translate(43.96 -137.04)"/>
    <path class="cls-4" d="M278.62,407.11l-2.72,2.76a3.38,3.38,0,0,1-2.06,1.24c-1,0-1.78-.79-2.43-1.56l-2.1-2.49" transform="translate(43.96 -137.04)"/>
    <path class="cls-4" d="M275.62,429.41a2.23,2.23,0,0,0-.81-2c-.54-.5-1.2-.86-1.73-1.37-1.24-1.19-1.86-3.19-3.5-3.64" transform="translate(43.96 -137.04)"/>
    <path class="cls-4" d="M268.89,442.67a5,5,0,0,0-3.35-2,5.4,5.4,0,0,1-.91-.14,2.84,2.84,0,0,1-1.7-2.25c-.21-1-.18-2-.45-2.94" transform="translate(43.96 -137.04)"/>
    <path class="cls-5" d="M259.05,453.84l-.89-2.12a1.12,1.12,0,0,0-.31-.5,1.08,1.08,0,0,0-.66-.16,8.77,8.77,0,0,1-3-.35,2.45,2.45,0,0,1-1.66-2.35" transform="translate(43.96 -137.04)"/>
    <path class="cls-5" d="M224.1,455.46l.79-4.36a1.75,1.75,0,0,1,.43-1,2.4,2.4,0,0,1,1-.37c.35-.09.74-.34.73-.72" transform="translate(43.96 -137.04)"/>
    <path class="cls-5" d="M238.41,459.12l.85-4.44a1.48,1.48,0,0,1,.17-.5,2,2,0,0,1,.42-.39,2.22,2.22,0,0,0,.48-2.69" transform="translate(43.96 -137.04)"/>
    <path class="cls-5" d="M258.12,369.66c-3.38.85-2.69,3.53-2.69,2.43,0,4.89-1,3.67-2,4.63" transform="translate(43.96 -137.04)"/>
    <path class="cls-4" d="M203.64,392.76a4,4,0,0,1,.59,1.52c.72-.26,1.89.78,2.34.15.09-.13,1.07-1.13,1.37-1,.54.22,2,0,2.42.45,1.15,1.35,2.53,2.67,3.15,1.27" transform="translate(43.96 -137.04)"/>
  </g>
</svg>
