<svg xmlns="http://www.w3.org/2000/svg" width="565.11" height="551.24" viewBox="0 0 565.11 551.24">
  <defs>
    <style>
      .cls-1, .cls-2, .cls-5 {
        fill: none;
      }

      .cls-1, .cls-2, .cls-3, .cls-5, .cls-6 {
        stroke: #231f20;
        stroke-miterlimit: 10;
      }

      .cls-1 {
        stroke-width: 0px;
      }

      .cls-2 {
        stroke-width: 0.01px;
      }

      .cls-3, .cls-6 {
        fill: #fff;
      }

      .cls-4 {
        fill: #231f20;
      }

      .cls-5 {
        stroke-width: 1.8px;
      }

      .cls-6 {
        stroke-width: 0.45px;
      }
    </style>
  </defs>
  <g id="Layer_115" data-name="Layer 115">
    <circle class="cls-1" cx="565.05" cy="0.06" r="0.06"/>
    <ellipse class="cls-2" cx="0.03" cy="550.79" rx="0.02" ry="0.45"/>
  </g>
  <g id="M_eyes_dialated" data-name="M eyes dialated">
    <ellipse id="right_eyeball" data-name="right eyeball" class="cls-3" cx="368.65" cy="273.3" rx="40.01" ry="47.42"/>
    <g id="right_pupil" data-name="right pupil">
      <ellipse class="cls-4" cx="378.58" cy="273.31" rx="24.26" ry="21.32"/>
      <ellipse class="cls-5" cx="378.58" cy="273.31" rx="24.26" ry="21.32"/>
    </g>
    <path id="right_speck" data-name="right speck" class="cls-6" d="M324.05,401l1.08,1.1c-1.58,1.22-3.38,1.72-4,1.12s.22-2.09,1.81-3.31,3.38-1.73,4-1.12c.46.46.1,1.47-.9,2.51Z" transform="translate(43.96 -137.04)"/>
    <ellipse id="left_eyeball" data-name="left eyeball" class="cls-3" cx="283.11" cy="274.84" rx="40.01" ry="47.42"/>
    <g id="left_pupil" data-name="left pupil">
      <ellipse class="cls-4" cx="288.36" cy="274.54" rx="24.26" ry="21.32"/>
      <ellipse class="cls-5" cx="288.36" cy="274.54" rx="24.26" ry="21.32"/>
    </g>
    <path id="left_speck" data-name="left speck" class="cls-6" d="M234.38,402.87l1.08,1.09c-1.58,1.22-3.38,1.73-4,1.13s.22-2.1,1.81-3.32,3.38-1.72,4-1.12.1,1.47-.9,2.51Z" transform="translate(43.96 -137.04)"/>
  </g>
</svg>
