<svg xmlns="http://www.w3.org/2000/svg" width="565.11" height="551.24" viewBox="0 0 565.11 551.24">
  <defs>
    <style>
      .cls-1, .cls-2 {
        fill: none;
        stroke: #231f20;
        stroke-miterlimit: 10;
      }

      .cls-1 {
        stroke-width: 0px;
      }

      .cls-2 {
        stroke-width: 0.01px;
      }

      .cls-3 {
        fill: #010101;
      }

      .cls-4 {
        fill: #fff;
      }
    </style>
  </defs>
  <g id="Layer_115" data-name="Layer 115">
    <circle class="cls-1" cx="565.05" cy="0.06" r="0.06"/>
    <ellipse class="cls-2" cx="0.03" cy="550.79" rx="0.02" ry="0.45"/>
  </g>
  <g id="M_eyes_black" data-name="M eyes black">
    <g>
      <path class="cls-3" d="M324.69,456.73c-21.72,0-39.38-20.92-39.38-46.63s17.66-46.63,39.38-46.63,39.38,20.92,39.38,46.63S346.4,456.73,324.69,456.73Z" transform="translate(43.96 -137.04)"/>
      <path class="cls-3" d="M324.69,364c21.41,0,38.84,20.68,38.84,46.1s-17.43,46.09-38.84,46.09-38.84-20.68-38.84-46.09S303.27,364,324.69,364m0-1.07c-22.05,0-39.92,21.12-39.92,47.17s17.87,47.17,39.92,47.17,39.91-21.12,39.91-47.17-17.87-47.17-39.91-47.17Z" transform="translate(43.96 -137.04)"/>
    </g>
    <g id="eye_dimple_2" data-name="eye dimple 2">
      <path class="cls-4" d="M344.38,412.9c-3.81,0-6.91-2.76-6.91-6.14s3.1-6.13,6.91-6.13,6.91,2.75,6.91,6.13S348.19,412.9,344.38,412.9Z" transform="translate(43.96 -137.04)"/>
      <path class="cls-3" d="M344.38,401.17c3.51,0,6.37,2.51,6.37,5.59s-2.86,5.6-6.37,5.6-6.38-2.51-6.38-5.6,2.86-5.59,6.38-5.59m0-1.08c-4.12,0-7.45,3-7.45,6.67s3.33,6.67,7.45,6.67,7.45-3,7.45-6.67-3.34-6.67-7.45-6.67Z" transform="translate(43.96 -137.04)"/>
    </g>
    <g id="eye_dimple_1" data-name="eye dimple 1">
      <path class="cls-4" d="M344.91,401.46a7.09,7.09,0,1,1,7.45-7.08A7.28,7.28,0,0,1,344.91,401.46Z" transform="translate(43.96 -137.04)"/>
      <path class="cls-3" d="M344.91,387.83a6.55,6.55,0,1,1-6.91,6.55,6.74,6.74,0,0,1,6.91-6.55m0-1.08a7.63,7.63,0,1,0,8,7.63,7.81,7.81,0,0,0-8-7.63Z" transform="translate(43.96 -137.04)"/>
    </g>
    <g>
      <ellipse class="cls-3" cx="283.02" cy="274.59" rx="39.38" ry="46.63"/>
      <path class="cls-3" d="M239.06,365.54c21.41,0,38.84,20.67,38.84,46.09s-17.43,46.1-38.84,46.1-38.84-20.68-38.84-46.1,17.42-46.09,38.84-46.09m0-1.08c-22.05,0-39.92,21.12-39.92,47.17S217,458.8,239.06,458.8,279,437.68,279,411.63s-17.87-47.17-39.91-47.17Z" transform="translate(43.96 -137.04)"/>
    </g>
    <g id="eye_dimple_2-2" data-name="eye dimple 2">
      <path class="cls-4" d="M258.75,414.43c-3.81,0-6.92-2.75-6.92-6.13s3.11-6.14,6.92-6.14,6.91,2.75,6.91,6.14S262.56,414.43,258.75,414.43Z" transform="translate(43.96 -137.04)"/>
      <path class="cls-3" d="M258.75,402.7c3.51,0,6.37,2.51,6.37,5.6s-2.86,5.59-6.37,5.59-6.38-2.51-6.38-5.59,2.86-5.6,6.38-5.6m0-1.07c-4.12,0-7.45,3-7.45,6.67s3.33,6.67,7.45,6.67,7.45-3,7.45-6.67-3.34-6.67-7.45-6.67Z" transform="translate(43.96 -137.04)"/>
    </g>
    <g id="eye_dimple_1-2" data-name="eye dimple 1">
      <path class="cls-4" d="M259.28,403a7.09,7.09,0,1,1,7.45-7.08A7.28,7.28,0,0,1,259.28,403Z" transform="translate(43.96 -137.04)"/>
      <path class="cls-3" d="M259.28,389.36a6.56,6.56,0,1,1-6.91,6.55,6.75,6.75,0,0,1,6.91-6.55m0-1.08a7.63,7.63,0,1,0,8,7.63,7.81,7.81,0,0,0-8-7.63Z" transform="translate(43.96 -137.04)"/>
    </g>
  </g>
</svg>
