<svg xmlns="http://www.w3.org/2000/svg" width="464.19" height="655.94" viewBox="0 0 464.19 655.94">
  <defs>
    <style>
      .cls-1 {
        fill: #231f20;
      }

      .cls-2, .cls-4 {
        fill: #fff;
      }

      .cls-2, .cls-3, .cls-4 {
        stroke: #231f20;
        stroke-miterlimit: 10;
      }

      .cls-3 {
        fill: none;
        stroke-width: 1.8px;
      }

      .cls-4 {
        stroke-width: 0.45px;
      }
    </style>
  </defs>
  <g id="Layer_185" data-name="Layer 185">
    <path class="cls-1" d="M470,86.44a0,0,0,0,0,0,0,0,0,0,0,0,0,0Z" transform="translate(-5.8 -86.41)"/>
    <path class="cls-1" d="M5.81,742.35s0,0,0,0,0,0,0,0Z" transform="translate(-5.8 -86.41)"/>
  </g>
  <g id="M_eyes_dialated" data-name="M eyes dialated">
    <ellipse id="right_eyeball" data-name="right eyeball" class="cls-2" cx="318.89" cy="323.93" rx="40.01" ry="47.42"/>
    <g id="right_pupil" data-name="right pupil">
      <ellipse class="cls-1" cx="328.82" cy="323.94" rx="24.26" ry="21.32"/>
      <ellipse class="cls-3" cx="328.82" cy="323.94" rx="24.26" ry="21.32"/>
    </g>
    <path id="right_speck" data-name="right speck" class="cls-4" d="M324.05,401l1.08,1.1c-1.58,1.22-3.38,1.72-4,1.12s.22-2.09,1.81-3.31,3.38-1.73,4-1.12c.46.46.1,1.47-.9,2.51Z" transform="translate(-5.8 -86.41)"/>
    <ellipse id="left_eyeball" data-name="left eyeball" class="cls-2" cx="233.35" cy="325.47" rx="40.01" ry="47.42"/>
    <g id="left_pupil" data-name="left pupil">
      <ellipse class="cls-1" cx="238.6" cy="325.17" rx="24.26" ry="21.32"/>
      <ellipse class="cls-3" cx="238.6" cy="325.17" rx="24.26" ry="21.32"/>
    </g>
    <path id="left_speck" data-name="left speck" class="cls-4" d="M234.38,402.87l1.08,1.09c-1.58,1.22-3.38,1.73-4,1.13s.22-2.1,1.81-3.32,3.38-1.72,4-1.12.1,1.47-.9,2.51Z" transform="translate(-5.8 -86.41)"/>
  </g>
</svg>
