<svg xmlns="http://www.w3.org/2000/svg" xmlns:xlink="http://www.w3.org/1999/xlink" width="464.19" height="655.94" viewBox="0 0 464.19 655.94">
  <defs>
    <style>
      .cls-1 {
        fill: #231f20;
      }

      .cls-2 {
        fill: #fff;
      }

      .cls-2, .cls-3, .cls-4, .cls-5, .cls-6, .cls-7, .cls-8, .cls-9 {
        stroke: #231f20;
        stroke-miterlimit: 10;
      }

      .cls-3, .cls-4, .cls-5 {
        stroke-width: 0.63px;
      }

      .cls-3 {
        fill: url(#linear-gradient);
      }

      .cls-4 {
        fill: #df8e7e;
      }

      .cls-5 {
        fill: url(#linear-gradient-2);
      }

      .cls-6, .cls-7, .cls-9 {
        stroke-width: 0.62px;
      }

      .cls-6 {
        fill: url(#linear-gradient-3);
      }

      .cls-7, .cls-8 {
        fill: #725ba7;
      }

      .cls-8 {
        stroke-width: 0.62px;
      }

      .cls-9 {
        fill: url(#linear-gradient-4);
      }
    </style>
    <linearGradient id="linear-gradient" x1="232.68" y1="414.61" x2="259.98" y2="402.46" gradientUnits="userSpaceOnUse">
      <stop offset="0" stop-color="#f1ccc5"/>
      <stop offset="0.18" stop-color="#eec1bb"/>
      <stop offset="0.3" stop-color="#ecb7b1"/>
      <stop offset="0.52" stop-color="#ecb7b0"/>
      <stop offset="0.69" stop-color="#ecb5ae"/>
    </linearGradient>
    <linearGradient id="linear-gradient-2" x1="320.9" y1="414.33" x2="348.2" y2="402.18" xlink:href="#linear-gradient"/>
    <linearGradient id="linear-gradient-3" x1="318.54" y1="409.44" x2="349.15" y2="409.44" gradientUnits="userSpaceOnUse">
      <stop offset="0" stop-color="#7cc791"/>
      <stop offset="0.11" stop-color="#71c488"/>
      <stop offset="0.29" stop-color="#54bc71"/>
      <stop offset="0.3" stop-color="#52bb6f"/>
      <stop offset="0.52" stop-color="#0eb251"/>
      <stop offset="0.69" stop-color="#1ab24b"/>
    </linearGradient>
    <linearGradient id="linear-gradient-4" x1="230.25" y1="409.73" x2="260.86" y2="409.73" xlink:href="#linear-gradient-3"/>
  </defs>
  <g id="Layer_185" data-name="Layer 185">
    <path class="cls-1" d="M470,86.44a0,0,0,0,0,0,0,0,0,0,0,0,0,0Z" transform="translate(-5.8 -86.41)"/>
    <path class="cls-1" d="M5.81,742.35s0,0,0,0,0,0,0,0Z" transform="translate(-5.8 -86.41)"/>
  </g>
  <g id="M_boob_eyes_green" data-name="M boob eyes green">
    <ellipse id="right_eyeball" data-name="right eyeball" class="cls-2" cx="318.94" cy="323.93" rx="40.01" ry="47.42"/>
    <ellipse id="left_eyeball" data-name="left eyeball" class="cls-2" cx="233.4" cy="325.47" rx="40.01" ry="47.42"/>
    <path class="cls-3" d="M254,397.43c10.6,6.14,9.59,24-8.05,24.79-14.22.37-22.11-16.66-8.7-24.75a23.06,23.06,0,0,0,10.36,1.5A22.08,22.08,0,0,0,254,397.43Z" transform="translate(-5.8 -86.41)"/>
    <path class="cls-4" d="M237.25,397.45h0a17.36,17.36,0,0,1,6.33-2,18.45,18.45,0,0,1,10.35,1.94,22.39,22.39,0,0,1-16.68,0Z" transform="translate(-5.8 -86.41)"/>
    <path class="cls-4" d="M243.89,395.38c.21-1.67,2.93-1.87,4-.8a.92.92,0,0,1,.28.47c.07.29,0,.3.09.44a2.1,2.1,0,0,0,.55.21c.49.18.9.41.8.83-.3.54-2.21.78-3.28.77a9.72,9.72,0,0,1-2.37-.14c-.68-.13-2-.56-1.23-1.25a2.42,2.42,0,0,1,1.13-.46S243.91,395.41,243.89,395.38Z" transform="translate(-5.8 -86.41)"/>
    <path class="cls-5" d="M342.18,397.14c10.6,6.15,9.59,24-8.05,24.79-14.22.38-22.11-16.65-8.69-24.75a22.7,22.7,0,0,0,10.35,1.5A22,22,0,0,0,342.18,397.14Z" transform="translate(-5.8 -86.41)"/>
    <path class="cls-4" d="M325.47,397.17h0a17.52,17.52,0,0,1,6.33-2,18.28,18.28,0,0,1,10.35,1.94,22.52,22.52,0,0,1-16.68,0Z" transform="translate(-5.8 -86.41)"/>
    <path class="cls-4" d="M332.11,395.09c.21-1.66,2.93-1.86,4-.8a1,1,0,0,1,.28.47c.07.3,0,.3.09.45a2.74,2.74,0,0,0,.55.21c.49.18.91.4.8.82-.3.55-2.21.79-3.28.77a9.6,9.6,0,0,1-2.36-.14c-.69-.13-2-.55-1.24-1.25a2.51,2.51,0,0,1,1.13-.45S332.13,395.12,332.11,395.09Z" transform="translate(-5.8 -86.41)"/>
    <path class="cls-6" d="M342.28,397.13c10.64,6.1,9.63,23.82-8.09,24.62-14.27.37-22.19-16.54-8.72-24.58a23.21,23.21,0,0,0,10.39,1.49A22.61,22.61,0,0,0,342.28,397.13Z" transform="translate(-5.8 -86.41)"/>
    <path class="cls-7" d="M325.5,397.15h0a17.6,17.6,0,0,1,6.36-2,18.69,18.69,0,0,1,10.38,1.92,22.68,22.68,0,0,1-16.74,0Z" transform="translate(-5.8 -86.41)"/>
    <path class="cls-8" d="M332.17,395.08c.21-1.65,2.94-1.85,4-.79a1,1,0,0,1,.28.46c.07.3,0,.3.09.45s.49.19.55.21c.49.17.91.4.8.82-.3.54-2.22.78-3.3.76a9.72,9.72,0,0,1-2.37-.14c-.69-.13-2-.55-1.23-1.24a2.47,2.47,0,0,1,1.13-.45S332.19,395.12,332.17,395.08Z" transform="translate(-5.8 -86.41)"/>
    <path class="cls-9" d="M254,397.41c10.65,6.11,9.63,23.83-8.08,24.63-14.28.37-22.2-16.54-8.73-24.59a23.2,23.2,0,0,0,10.4,1.5A22.24,22.24,0,0,0,254,397.41Z" transform="translate(-5.8 -86.41)"/>
    <path class="cls-7" d="M237.21,397.44h0a17.47,17.47,0,0,1,6.36-2A18.52,18.52,0,0,1,254,397.4a22.7,22.7,0,0,1-16.75,0Z" transform="translate(-5.8 -86.41)"/>
    <path class="cls-8" d="M243.88,395.37c.21-1.66,3-1.85,4-.8a1,1,0,0,1,.28.47c.07.29,0,.3.09.44a2.25,2.25,0,0,0,.55.21c.49.18.91.4.8.82-.29.54-2.21.78-3.29.77a10.21,10.21,0,0,1-2.37-.14c-.69-.13-2-.55-1.24-1.24a2.42,2.42,0,0,1,1.13-.46C243.86,395.44,243.91,395.4,243.88,395.37Z" transform="translate(-5.8 -86.41)"/>
  </g>
</svg>
