<svg xmlns="http://www.w3.org/2000/svg" width="565.11" height="551.24" viewBox="0 0 565.11 551.24">
  <defs>
    <style>
      .cls-1, .cls-2, .cls-5 {
        fill: none;
      }

      .cls-1, .cls-2, .cls-3, .cls-5, .cls-6 {
        stroke: #231f20;
        stroke-miterlimit: 10;
      }

      .cls-1 {
        stroke-width: 0px;
      }

      .cls-2 {
        stroke-width: 0.01px;
      }

      .cls-3, .cls-6 {
        fill: #fff;
      }

      .cls-4 {
        fill: #231f20;
      }

      .cls-6 {
        stroke-width: 0.25px;
      }
    </style>
  </defs>
  <g id="Layer_115" data-name="Layer 115">
    <circle class="cls-1" cx="565.05" cy="0.06" r="0.06"/>
    <ellipse class="cls-2" cx="0.03" cy="550.79" rx="0.02" ry="0.45"/>
  </g>
  <g id="M_eyes_normal" data-name="M eyes normal">
    <ellipse id="right_eyeball" data-name="right eyeball" class="cls-3" cx="368.65" cy="273.3" rx="40.01" ry="47.42"/>
    <g id="right_pupil" data-name="right pupil">
      <ellipse class="cls-4" cx="377.69" cy="270.52" rx="13.51" ry="11.87"/>
      <ellipse class="cls-5" cx="377.69" cy="270.52" rx="13.51" ry="11.87"/>
    </g>
    <path id="right_speck" data-name="right speck" class="cls-6" d="M327.84,402.36l.6.61c-.88.68-1.88,1-2.21.62s.12-1.16,1-1.84,1.89-1,2.22-.63.05.82-.5,1.4Z" transform="translate(43.96 -137.04)"/>
    <ellipse id="left_eyeball" data-name="left eyeball" class="cls-3" cx="283.24" cy="274.84" rx="40.01" ry="47.42"/>
    <g id="left_pupil" data-name="left pupil">
      <ellipse class="cls-4" cx="290.82" cy="272.05" rx="13.51" ry="11.87"/>
      <ellipse class="cls-5" cx="290.82" cy="272.05" rx="13.51" ry="11.87"/>
    </g>
    <path id="left_speck" data-name="left speck" class="cls-6" d="M241.29,404.24l.6.61c-.88.68-1.88,1-2.21.63s.12-1.17,1-1.85,1.89-1,2.22-.63,0,.82-.5,1.4Z" transform="translate(43.96 -137.04)"/>
  </g>
</svg>
