<svg xmlns="http://www.w3.org/2000/svg" xmlns:xlink="http://www.w3.org/1999/xlink" width="565.11" height="551.24" viewBox="0 0 565.11 551.24">
  <defs>
    <style>
      .cls-1, .cls-2 {
        fill: none;
      }

      .cls-1, .cls-2, .cls-3, .cls-4, .cls-5, .cls-6 {
        stroke: #231f20;
        stroke-miterlimit: 10;
      }

      .cls-1 {
        stroke-width: 0px;
      }

      .cls-2 {
        stroke-width: 0.01px;
      }

      .cls-3 {
        fill: #fff;
      }

      .cls-4, .cls-5, .cls-6 {
        stroke-width: 0.63px;
      }

      .cls-4 {
        fill: url(#linear-gradient);
      }

      .cls-5 {
        fill: #df8e7e;
      }

      .cls-6 {
        fill: url(#linear-gradient-2);
      }
    </style>
    <linearGradient id="linear-gradient" x1="232.68" y1="414.61" x2="259.98" y2="402.46" gradientUnits="userSpaceOnUse">
      <stop offset="0" stop-color="#f1ccc5"/>
      <stop offset="0.18" stop-color="#eec1bb"/>
      <stop offset="0.3" stop-color="#ecb7b1"/>
      <stop offset="0.52" stop-color="#ecb7b0"/>
      <stop offset="0.69" stop-color="#ecb5ae"/>
    </linearGradient>
    <linearGradient id="linear-gradient-2" x1="320.9" y1="414.33" x2="348.2" y2="402.18" xlink:href="#linear-gradient"/>
  </defs>
  <g id="Layer_115" data-name="Layer 115">
    <circle class="cls-1" cx="565.05" cy="0.06" r="0.06"/>
    <ellipse class="cls-2" cx="0.03" cy="550.79" rx="0.02" ry="0.45"/>
  </g>
  <g id="M_boob_eyes" data-name="M boob eyes">
    <ellipse id="right_eyeball" data-name="right eyeball" class="cls-3" cx="368.7" cy="273.3" rx="40.01" ry="47.42"/>
    <ellipse id="left_eyeball" data-name="left eyeball" class="cls-3" cx="283.16" cy="274.84" rx="40.01" ry="47.42"/>
    <path class="cls-4" d="M254,397.43c10.6,6.14,9.59,24-8.05,24.79-14.22.37-22.11-16.66-8.7-24.75a23.06,23.06,0,0,0,10.36,1.5A22.08,22.08,0,0,0,254,397.43Z" transform="translate(43.96 -137.04)"/>
    <path class="cls-5" d="M237.25,397.45h0a17.36,17.36,0,0,1,6.33-2,18.45,18.45,0,0,1,10.35,1.94,22.39,22.39,0,0,1-16.68,0Z" transform="translate(43.96 -137.04)"/>
    <path class="cls-5" d="M243.89,395.38c.21-1.67,2.93-1.87,4-.8a.92.92,0,0,1,.28.47c.07.29,0,.3.09.44a2.1,2.1,0,0,0,.55.21c.49.18.9.41.8.83-.3.54-2.21.78-3.28.77a9.72,9.72,0,0,1-2.37-.14c-.68-.13-2-.56-1.23-1.25a2.42,2.42,0,0,1,1.13-.46S243.91,395.41,243.89,395.38Z" transform="translate(43.96 -137.04)"/>
    <path class="cls-6" d="M342.18,397.14c10.6,6.15,9.59,24-8.05,24.79-14.22.38-22.11-16.65-8.69-24.75a22.7,22.7,0,0,0,10.35,1.5A22,22,0,0,0,342.18,397.14Z" transform="translate(43.96 -137.04)"/>
    <path class="cls-5" d="M325.47,397.17h0a17.52,17.52,0,0,1,6.33-2,18.28,18.28,0,0,1,10.35,1.94,22.52,22.52,0,0,1-16.68,0Z" transform="translate(43.96 -137.04)"/>
    <path class="cls-5" d="M332.11,395.09c.21-1.66,2.93-1.86,4-.8a1,1,0,0,1,.28.47c.07.3,0,.3.09.45a2.74,2.74,0,0,0,.55.21c.49.18.91.4.8.82-.3.55-2.21.79-3.28.77a9.6,9.6,0,0,1-2.36-.14c-.69-.13-2-.55-1.24-1.25a2.51,2.51,0,0,1,1.13-.45S332.13,395.12,332.11,395.09Z" transform="translate(43.96 -137.04)"/>
  </g>
</svg>
