<svg xmlns="http://www.w3.org/2000/svg" width="565.11" height="551.24" viewBox="0 0 565.11 551.24">
  <defs>
    <style>
      .cls-1, .cls-2 {
        fill: none;
      }

      .cls-1, .cls-2, .cls-3, .cls-4, .cls-5 {
        stroke: #231f20;
        stroke-miterlimit: 10;
      }

      .cls-1 {
        stroke-width: 0px;
      }

      .cls-2 {
        stroke-width: 0.01px;
      }

      .cls-3 {
        fill: #231f20;
      }

      .cls-3, .cls-4, .cls-5 {
        stroke-width: 0.88px;
      }

      .cls-4 {
        fill: #fff;
      }

      .cls-5 {
        fill: #d42c27;
      }
    </style>
  </defs>
  <g id="Layer_115" data-name="Layer 115">
    <circle class="cls-1" cx="565.05" cy="0.06" r="0.06"/>
    <ellipse class="cls-2" cx="0.03" cy="550.79" rx="0.02" ry="0.45"/>
  </g>
  <g id="mouth_excited" data-name="mouth excited">
    <path class="cls-3" d="M263.44,470.6c-18.08,7.93-5.11,43.51,7.69,45.09,10.33,1.28,32.16-12.55,28.49-30.38C297.08,473,276.53,464.86,263.44,470.6Z" transform="translate(43.96 -137.04)"/>
    <g id="Layer_65" data-name="Layer 65">
      <path class="cls-4" d="M258,475.44c7.32-11.91,36.18-6.12,40.63,6.92,1.63,4.77-8.93,4.85-21.36,2.36C267,482.67,255.47,479.58,258,475.44Z" transform="translate(43.96 -137.04)"/>
    </g>
    <g id="Layer_66" data-name="Layer 66">
      <path class="cls-5" d="M271.85,515.11c8.75-.64,19.09-6.32,15-6.39-13.61-.21-20.93-3-24.86-2.07C259.79,507.19,266.76,515.48,271.85,515.11Z" transform="translate(43.96 -137.04)"/>
    </g>
  </g>
</svg>
