<svg xmlns="http://www.w3.org/2000/svg" width="565.11" height="551.24" viewBox="0 0 565.11 551.24">
  <defs>
    <style>
      .cls-1, .cls-2, .cls-3 {
        fill: none;
      }

      .cls-1, .cls-2, .cls-3, .cls-4 {
        stroke: #231f20;
        stroke-miterlimit: 10;
      }

      .cls-1 {
        stroke-width: 0px;
      }

      .cls-2 {
        stroke-width: 0.01px;
      }

      .cls-4 {
        fill: #fff;
      }
    </style>
  </defs>
  <g id="Layer_115" data-name="Layer 115">
    <circle class="cls-1" cx="565.05" cy="0.06" r="0.06"/>
    <ellipse class="cls-2" cx="0.03" cy="550.79" rx="0.02" ry="0.45"/>
  </g>
  <g id="mouth_fangs" data-name="mouth fangs">
    <g>
      <path class="cls-3" d="M242.56,483.08a71.5,71.5,0,0,0,22,5.53,74.17,74.17,0,0,0,36.35-6.14" transform="translate(43.96 -137.04)"/>
      <path class="cls-3" d="M241.47,486.15a3.19,3.19,0,0,1-2.05-4.24c.81-1.65,3.38-2.43,5.42-1.36" transform="translate(43.96 -137.04)"/>
    </g>
    <polygon class="cls-4" points="298.03 349.86 299.56 356.7 302.72 350.82 298.03 349.86"/>
    <polygon class="cls-4" points="332.66 349.86 331.13 356.7 327.97 350.82 332.66 349.86"/>
  </g>
</svg>
