<svg xmlns="http://www.w3.org/2000/svg" width="464.19" height="655.94" viewBox="0 0 464.19 655.94">
  <defs>
    <style>
      .cls-1 {
        fill: #231f20;
      }

      .cls-2 {
        fill: none;
        stroke: #231f20;
        stroke-miterlimit: 10;
      }
    </style>
  </defs>
  <g id="Layer_185" data-name="Layer 185">
    <path class="cls-1" d="M470,86.44a0,0,0,0,0,0,0,0,0,0,0,0,0,0Z" transform="translate(-5.8 -86.41)"/>
    <path class="cls-1" d="M5.81,742.35s0,0,0,0,0,0,0,0Z" transform="translate(-5.8 -86.41)"/>
  </g>
  <g id="mouth_smile" data-name="mouth smile">
    <g>
      <path class="cls-2" d="M242.49,483.08a71.51,71.51,0,0,0,22,5.53,74.12,74.12,0,0,0,36.35-6.14" transform="translate(-5.8 -86.41)"/>
      <path class="cls-2" d="M241.39,486.15a3.2,3.2,0,0,1-2-4.24c.81-1.65,3.38-2.43,5.42-1.36" transform="translate(-5.8 -86.41)"/>
    </g>
  </g>
</svg>
