<svg xmlns="http://www.w3.org/2000/svg" width="464.19" height="655.94" viewBox="0 0 464.19 655.94">
  <defs>
    <style>
      .cls-1, .cls-2 {
        fill: #231f20;
      }

      .cls-2 {
        stroke: #231f20;
        stroke-miterlimit: 10;
      }
    </style>
  </defs>
  <g id="Layer_185" data-name="Layer 185">
    <path class="cls-1" d="M470,86.44a0,0,0,0,0,0,0,0,0,0,0,0,0,0Z" transform="translate(-5.8 -86.41)"/>
    <path class="cls-1" d="M5.81,742.35s0,0,0,0,0,0,0,0Z" transform="translate(-5.8 -86.41)"/>
  </g>
  <g id="Thick" data-name="Thick">
    <path id="left" class="cls-2" d="M203.87,351.15c.74,3.84,1.07,8.32,1.7,7.45,8.54-11.85,50.43-12.51,59.06-2,.4.49.1-3.8-.34-7.85C263.4,340.6,201.75,340.26,203.87,351.15Z" transform="translate(-5.8 -86.41)"/>
    <path id="right" class="cls-2" d="M356,351.15c-.74,3.84-1.08,8.32-1.7,7.45-8.54-11.85-50.43-12.51-59.07-2-.4.49-.09-3.8.35-7.85C296.44,340.6,358.08,340.26,356,351.15Z" transform="translate(-5.8 -86.41)"/>
  </g>
</svg>
