<svg xmlns="http://www.w3.org/2000/svg" width="565.11" height="551.24" viewBox="0 0 565.11 551.24">
  <defs>
    <style>
      .cls-1, .cls-2, .cls-3 {
        fill: none;
        stroke: #231f20;
        stroke-miterlimit: 10;
      }

      .cls-1 {
        stroke-width: 0px;
      }

      .cls-2 {
        stroke-width: 0.01px;
      }

      .cls-3 {
        stroke-width: 0.78px;
      }
    </style>
  </defs>
  <g id="Layer_115" data-name="Layer 115">
    <circle class="cls-1" cx="565.05" cy="0.06" r="0.06"/>
    <ellipse class="cls-2" cx="0.03" cy="550.79" rx="0.02" ry="0.45"/>
  </g>
  <g id="eyebrows_eyelashes" data-name="eyebrows eyelashes">
    <path class="cls-3" d="M231.29,342.82a26.26,26.26,0,0,1,.14,13.51,22.1,22.1,0,0,1-9.08,12.38" transform="translate(43.96 -137.04)"/>
    <path class="cls-3" d="M269.32,345.83a26.26,26.26,0,0,1,.14,13.51,22,22,0,0,1-9.08,12.37" transform="translate(43.96 -137.04)"/>
    <path class="cls-3" d="M259.41,340.12a26.26,26.26,0,0,1,.14,13.51A22,22,0,0,1,250.47,366" transform="translate(43.96 -137.04)"/>
    <path class="cls-3" d="M246.5,338.66a26.24,26.24,0,0,1,.15,13.51,22.08,22.08,0,0,1-9.09,12.37" transform="translate(43.96 -137.04)"/>
    <path class="cls-3" d="M317.56,341a26.37,26.37,0,0,1,.14,13.51,22.08,22.08,0,0,1-9.08,12.37" transform="translate(43.96 -137.04)"/>
    <path class="cls-3" d="M355.59,344.53a26.26,26.26,0,0,1,.14,13.51,22,22,0,0,1-9.08,12.37" transform="translate(43.96 -137.04)"/>
    <path class="cls-3" d="M345.88,339.17a26.26,26.26,0,0,1,.14,13.51,22,22,0,0,1-9.08,12.37" transform="translate(43.96 -137.04)"/>
    <path class="cls-3" d="M332.77,337.05a26.26,26.26,0,0,1,.14,13.51,22,22,0,0,1-9.08,12.37" transform="translate(43.96 -137.04)"/>
  </g>
</svg>
