<svg xmlns="http://www.w3.org/2000/svg" width="565.11" height="551.24" viewBox="0 0 565.11 551.24">
  <defs>
    <style>
      .cls-1, .cls-2 {
        fill: none;
      }

      .cls-1, .cls-2, .cls-3 {
        stroke: #231f20;
        stroke-miterlimit: 10;
      }

      .cls-1 {
        stroke-width: 0px;
      }

      .cls-2 {
        stroke-width: 0.01px;
      }

      .cls-3 {
        fill: #231f20;
      }
    </style>
  </defs>
  <g id="Layer_115" data-name="Layer 115">
    <circle class="cls-1" cx="565.05" cy="0.06" r="0.06"/>
    <ellipse class="cls-2" cx="0.03" cy="550.79" rx="0.02" ry="0.45"/>
  </g>
  <g id="eyebrows_thick" data-name="eyebrows thick">
    <path id="left" class="cls-3" d="M203.87,351.15c.74,3.84,1.07,8.32,1.7,7.45,8.54-11.85,50.43-12.51,59.06-2,.4.49.1-3.8-.34-7.85C263.4,340.6,201.75,340.26,203.87,351.15Z" transform="translate(43.96 -137.04)"/>
    <path id="right" class="cls-3" d="M356,351.15c-.74,3.84-1.08,8.32-1.7,7.45-8.54-11.85-50.43-12.51-59.07-2-.4.49-.09-3.8.35-7.85C296.44,340.6,358.08,340.26,356,351.15Z" transform="translate(43.96 -137.04)"/>
  </g>
</svg>
