<svg xmlns="http://www.w3.org/2000/svg" width="464.19" height="655.94" viewBox="0 0 464.19 655.94">
  <defs>
    <style>
      .cls-1 {
        fill: #231f20;
      }

      .cls-2 {
        fill: none;
        stroke: #231f20;
        stroke-miterlimit: 10;
        stroke-width: 0.78px;
      }
    </style>
  </defs>
  <g id="Layer_185" data-name="Layer 185">
    <path class="cls-1" d="M470,86.44a0,0,0,0,0,0,0,0,0,0,0,0,0,0Z" transform="translate(-5.8 -86.41)"/>
    <path class="cls-1" d="M5.81,742.35s0,0,0,0,0,0,0,0Z" transform="translate(-5.8 -86.41)"/>
  </g>
  <g id="eyebrows_eyelashes" data-name="eyebrows eyelashes">
    <path class="cls-2" d="M231.29,342.82a26.26,26.26,0,0,1,.14,13.51,22.1,22.1,0,0,1-9.08,12.38" transform="translate(-5.8 -86.41)"/>
    <path class="cls-2" d="M269.32,345.83a26.26,26.26,0,0,1,.14,13.51,22,22,0,0,1-9.08,12.37" transform="translate(-5.8 -86.41)"/>
    <path class="cls-2" d="M259.41,340.12a26.26,26.26,0,0,1,.14,13.51A22,22,0,0,1,250.47,366" transform="translate(-5.8 -86.41)"/>
    <path class="cls-2" d="M246.5,338.66a26.24,26.24,0,0,1,.15,13.51,22.08,22.08,0,0,1-9.09,12.37" transform="translate(-5.8 -86.41)"/>
    <path class="cls-2" d="M317.56,341a26.37,26.37,0,0,1,.14,13.51,22.08,22.08,0,0,1-9.08,12.37" transform="translate(-5.8 -86.41)"/>
    <path class="cls-2" d="M355.59,344.53a26.26,26.26,0,0,1,.14,13.51,22,22,0,0,1-9.08,12.37" transform="translate(-5.8 -86.41)"/>
    <path class="cls-2" d="M345.88,339.17a26.26,26.26,0,0,1,.14,13.51,22,22,0,0,1-9.08,12.37" transform="translate(-5.8 -86.41)"/>
    <path class="cls-2" d="M332.77,337.05a26.26,26.26,0,0,1,.14,13.51,22,22,0,0,1-9.08,12.37" transform="translate(-5.8 -86.41)"/>
  </g>
</svg>
