<svg xmlns="http://www.w3.org/2000/svg" width="565.11" height="551.24" viewBox="0 0 565.11 551.24">
  <defs>
    <style>
      .cls-1, .cls-2, .cls-3 {
        fill: none;
      }

      .cls-1, .cls-2 {
        stroke: #231f20;
      }

      .cls-1, .cls-2, .cls-3, .cls-4, .cls-5, .cls-6 {
        stroke-miterlimit: 10;
      }

      .cls-1 {
        stroke-width: 0px;
      }

      .cls-2 {
        stroke-width: 0.01px;
      }

      .cls-3, .cls-4, .cls-5, .cls-6 {
        stroke: #000;
      }

      .cls-3 {
        stroke-width: 1.88px;
      }

      .cls-4 {
        stroke-width: 0.75px;
      }

      .cls-5 {
        stroke-width: 0.74px;
      }

      .cls-6 {
        stroke-width: 0.53px;
      }
    </style>
  </defs>
  <g id="Layer_115" data-name="Layer 115">
    <circle class="cls-1" cx="565.05" cy="0.06" r="0.06"/>
    <ellipse class="cls-2" cx="0.03" cy="550.79" rx="0.02" ry="0.45"/>
  </g>
  <g id="anchor_tattoo" data-name="anchor tattoo">
    <circle class="cls-3" cx="228.85" cy="314.1" r="3.51"/>
    <g id="Layer_141" data-name="Layer 141">
      <path class="cls-4" d="M180.66,493.54c1.34,0,2.69,3.71,4,3.71s2.57-3.44,3.78-3.49c-.68-25-1.05-39.94-1.05-39.94h0a4,4,0,0,1-4.92,0Z" transform="translate(43.96 -137.04)"/>
    </g>
    <g id="Layer_142" data-name="Layer 142">
      <rect class="cls-5" x="217.27" y="320.3" width="23.15" height="2.56"/>
    </g>
    <g id="Layer_143" data-name="Layer 143">
      <path class="cls-6" d="M164,484.51c16.2,6.93,26.77,6.43,41.13.89,4.1-1.58-14.47,9.65-20.53,9.59C179.06,494.94,160.08,482.83,164,484.51Z" transform="translate(43.96 -137.04)"/>
    </g>
  </g>
</svg>
