<svg xmlns="http://www.w3.org/2000/svg" xmlns:xlink="http://www.w3.org/1999/xlink" width="464.19" height="655.94" viewBox="0 0 464.19 655.94">
  <defs>
    <style>
      .cls-1 {
        fill: #231f20;
      }

      .cls-2, .cls-3 {
        stroke: #231f20;
        stroke-miterlimit: 10;
        stroke-width: 0.49px;
      }

      .cls-2 {
        fill: url(#linear-gradient);
      }

      .cls-3 {
        fill: #8b5e3c;
      }
    </style>
    <linearGradient id="linear-gradient" x1="324.67" y1="483.91" x2="349.11" y2="483.91" gradientUnits="userSpaceOnUse">
      <stop offset="0" stop-color="#dca680"/>
      <stop offset="0.12" stop-color="#d19e78"/>
      <stop offset="0.3" stop-color="#b88c64"/>
      <stop offset="0.52" stop-color="#af825a"/>
      <stop offset="0.69" stop-color="#a97c50"/>
    </linearGradient>
  </defs>
  <g id="Layer_185" data-name="Layer 185">
    <path class="cls-1" d="M470,86.44a0,0,0,0,0,0,0,0,0,0,0,0,0,0Z" transform="translate(-5.8 -86.41)"/>
    <path class="cls-1" d="M5.81,742.35s0,0,0,0,0,0,0,0Z" transform="translate(-5.8 -86.41)"/>
  </g>
  <g id="boob_tattoo_brown" data-name="boob tattoo brown">
    <path class="cls-2" d="M343.63,474c8.5,4.93,7.69,19.23-6.45,19.87-11.4.3-17.72-13.35-7-19.84a18.3,18.3,0,0,0,8.3,1.21A17.62,17.62,0,0,0,343.63,474Z" transform="translate(-5.8 -86.41)"/>
    <path class="cls-3" d="M330.23,474h0a13.86,13.86,0,0,1,5.08-1.58A14.66,14.66,0,0,1,343.6,474a18,18,0,0,1-13.37,0Z" transform="translate(-5.8 -86.41)"/>
    <path class="cls-3" d="M335.56,472.33c.17-1.33,2.35-1.49,3.18-.64a.86.86,0,0,1,.22.37c.05.24,0,.25.07.36a1.75,1.75,0,0,0,.44.17c.39.14.73.33.64.66-.24.44-1.77.63-2.63.62a8,8,0,0,1-1.89-.11c-.55-.11-1.62-.45-1-1a1.88,1.88,0,0,1,.9-.37S335.58,472.36,335.56,472.33Z" transform="translate(-5.8 -86.41)"/>
  </g>
</svg>
