<svg xmlns="http://www.w3.org/2000/svg" width="565.11" height="551.24" viewBox="0 0 565.11 551.24">
  <defs>
    <style>
      .cls-1, .cls-2 {
        fill: none;
        stroke: #231f20;
        stroke-miterlimit: 10;
      }

      .cls-1 {
        stroke-width: 0px;
      }

      .cls-2 {
        stroke-width: 0.01px;
      }

      .cls-3 {
        fill: #231f20;
      }
    </style>
  </defs>
  <g id="Layer_115" data-name="Layer 115">
    <circle class="cls-1" cx="565.05" cy="0.06" r="0.06"/>
    <ellipse class="cls-2" cx="0.03" cy="550.79" rx="0.02" ry="0.45"/>
  </g>
  <g id="mom_tattoo" data-name="mom tattoo">
    <g>
      <path class="cls-3" d="M177.5,471.84l.16-4.76-.94.54a4.18,4.18,0,0,1,1.62,1.86.63.63,0,0,0,.52.45.61.61,0,0,0,.62-.3,12.74,12.74,0,0,0,1.21-3.55l-1.15.15a13.09,13.09,0,0,1,1.43,3.51c.19.78,1.4.45,1.2-.34a14.27,14.27,0,0,0-1.55-3.8.63.63,0,0,0-1.14.15A11.73,11.73,0,0,1,178.4,469l1.14.15a5.58,5.58,0,0,0-2.19-2.61.64.64,0,0,0-.94.54l-.16,4.76c0,.8,1.22.8,1.25,0Z" transform="translate(43.96 -137.04)"/>
      <path class="cls-3" d="M183.1,464.62a11.26,11.26,0,0,0-.74,2.21,4.27,4.27,0,0,0,0,1.67A1.75,1.75,0,0,0,184,470a3,3,0,0,0,2-.9,3,3,0,0,0,1-2.21,2.33,2.33,0,0,0-.12-.69,3.3,3.3,0,0,0-.76-1.09,3.68,3.68,0,0,0-2.43-1.23,2.3,2.3,0,0,0-.69.1.62.62,0,1,0,.33,1.2l.12,0h0s.23,0,.28,0h.13s-.13,0-.07,0h.06l.29.08s.09.05.12.05l-.05,0,.06,0,.26.13.24.16s.08.08.11.08l0,0,.07.06a3.16,3.16,0,0,1,.42.4c.05.06.11.12.16.19s0-.05,0-.05l0,.05.09.13.12.19c.06.1,0,0,0,0s0,.05,0,.07.08.2.06.25,0-.19,0-.09v.19s0,.24,0,.24,0-.19,0-.09v.06s0,.07,0,.11-.05.15-.07.23l0,0c0,.09,0-.12,0-.08a1.17,1.17,0,0,1-.05.11l-.12.21c0,.06-.09.12-.13.19l.05-.06,0,0-.07.09-.35.32s.15-.11.07-.06l0,0-.1.07-.19.12-.2.1.09,0,0,0-.11,0-.19.05-.1,0c-.12,0,.19,0,0,0h-.28c-.13,0,.19,0,.05,0l-.16,0c-.14,0,.13.07.05,0l-.08,0-.08-.05c-.07,0,.15.13.05,0l-.06-.05s-.11-.13,0,0,0,0,0,0a.41.41,0,0,1,0-.09s-.08-.16,0,0,0,0,0,0a1.05,1.05,0,0,1-.06-.24.13.13,0,0,1,0-.06c0-.09,0,.18,0,.08s0-.1,0-.15a4.72,4.72,0,0,1,0-.65s0,.17,0,0,0-.07,0-.1,0-.14,0-.2.06-.29.1-.43c.09-.33.2-.65.32-1l.11-.27a.5.5,0,0,1,0-.13c0-.07,0,0,0,0a.36.36,0,0,0,0-.09.67.67,0,0,0,.06-.48.62.62,0,0,0-1.14-.15Z" transform="translate(43.96 -137.04)"/>
      <path class="cls-3" d="M189,467.63c-.11-.53-.22-1.07-.3-1.61,0-.12,0-.25-.06-.37v-.08s0,.1,0,0a1.37,1.37,0,0,1,0-.19c0-.2,0-.41-.05-.62a2.26,2.26,0,0,1,0-.26s0-.08,0-.11,0,.14,0,0,.08-.22,0-.12,0,0,0,0-.09.1,0,.05a.55.55,0,0,1-.19.09c-.1,0-.06,0,0,0s-.17,0,0,0-.06,0,0,0l.1.05.1.07.11.07.11.09.15.14.39.38c.32.35.63.72.93,1.09a.63.63,0,0,0,1-.13,8.85,8.85,0,0,0,1.28-3.39l-1,.28a13.85,13.85,0,0,1,2.17,2.16.62.62,0,0,0,.89,0,.64.64,0,0,0,0-.88,14.91,14.91,0,0,0-2.18-2.17c-.32-.26-1-.24-1,.28a8.15,8.15,0,0,1-1.15,3.09l1-.13a10.87,10.87,0,0,0-1.65-1.74,1.52,1.52,0,0,0-1.36-.45c-1,.29-.76,1.87-.65,2.64s.24,1.38.38,2.07a.62.62,0,0,0,.77.43.63.63,0,0,0,.43-.77Z" transform="translate(43.96 -137.04)"/>
      <path class="cls-3" d="M184.92,461.5c1-3.93,5.55-6.52,9.47-5.66a4.94,4.94,0,0,1,3.86,3.86c.9,3.85-1.65,7.26-3.14,10.6A25.46,25.46,0,0,0,193,482.53l1.06-.44c-4.62-4.42-11.47-4.5-17-7.11-3-1.43-5.47-3.76-6.22-7.15a5.39,5.39,0,0,1,3.34-6.37c3.37-1.38,7.29-.42,10.32,1.34a.62.62,0,0,0,.63-1.07,13.88,13.88,0,0,0-9.91-1.89,7,7,0,0,0-5.64,5.09c-.69,3.14.94,6.66,3.23,8.76,2.52,2.32,5.9,3.39,9.12,4.32,3.92,1.13,8.23,2.05,11.28,5a.63.63,0,0,0,1.07-.44A25.35,25.35,0,0,1,197.14,469c1.62-3.19,3.37-6.69,2.12-10.33-1.56-4.52-6.92-5-10.73-3.16a8.83,8.83,0,0,0-4.82,5.67.63.63,0,0,0,1.21.34Z" transform="translate(43.96 -137.04)"/>
    </g>
  </g>
</svg>
