<svg xmlns="http://www.w3.org/2000/svg" width="464.19" height="655.94" viewBox="0 0 464.19 655.94">
  <defs>
    <style>
      .cls-1 {
        fill: #231f20;
      }

      .cls-2 {
        fill: none;
        stroke-width: 1.88px;
      }

      .cls-2, .cls-3, .cls-4, .cls-5 {
        stroke: #000;
        stroke-miterlimit: 10;
      }

      .cls-3 {
        stroke-width: 0.75px;
      }

      .cls-4 {
        stroke-width: 0.74px;
      }

      .cls-5 {
        stroke-width: 0.53px;
      }
    </style>
  </defs>
  <g id="Layer_185" data-name="Layer 185">
    <path class="cls-1" d="M470,86.44a0,0,0,0,0,0,0,0,0,0,0,0,0,0Z" transform="translate(-5.8 -86.41)"/>
    <path class="cls-1" d="M5.81,742.35s0,0,0,0,0,0,0,0Z" transform="translate(-5.8 -86.41)"/>
  </g>
  <g id="anchor_tattoo" data-name="anchor tattoo">
    <circle class="cls-2" cx="179.09" cy="364.73" r="3.51"/>
    <g id="Layer_141" data-name="Layer 141">
      <path class="cls-3" d="M180.66,493.54c1.34,0,2.69,3.71,4,3.71s2.57-3.44,3.78-3.49c-.68-25-1.05-39.94-1.05-39.94h0a4,4,0,0,1-4.92,0Z" transform="translate(-5.8 -86.41)"/>
    </g>
    <g id="Layer_142" data-name="Layer 142">
      <rect class="cls-4" x="167.51" y="370.93" width="23.15" height="2.56"/>
    </g>
    <g id="Layer_143" data-name="Layer 143">
      <path class="cls-5" d="M164,484.51c16.2,6.93,26.77,6.43,41.13.89,4.1-1.58-14.47,9.65-20.53,9.59C179.06,494.94,160.08,482.83,164,484.51Z" transform="translate(-5.8 -86.41)"/>
    </g>
  </g>
</svg>
