<svg xmlns="http://www.w3.org/2000/svg" xmlns:xlink="http://www.w3.org/1999/xlink" width="464.19" height="655.94" viewBox="0 0 464.19 655.94">
  <defs>
    <style>
      .cls-1 {
        fill: #231f20;
      }

      .cls-2, .cls-3 {
        stroke: #231f20;
        stroke-miterlimit: 10;
        stroke-width: 0.43px;
      }

      .cls-2 {
        fill: url(#linear-gradient);
      }

      .cls-3 {
        fill: #5f5245;
      }
    </style>
    <linearGradient id="linear-gradient" x1="324.68" y1="483.95" x2="349.15" y2="483.95" gradientUnits="userSpaceOnUse">
      <stop offset="0" stop-color="#af5a3c"/>
      <stop offset="0.09" stop-color="#a4583a"/>
      <stop offset="0.24" stop-color="#875234"/>
      <stop offset="0.3" stop-color="#794f31"/>
      <stop offset="0.52" stop-color="#6a4c2f"/>
      <stop offset="0.69" stop-color="#694a2d"/>
    </linearGradient>
  </defs>
  <g id="Layer_185" data-name="Layer 185">
    <path class="cls-1" d="M470,86.44a0,0,0,0,0,0,0,0,0,0,0,0,0,0Z" transform="translate(-5.8 -86.41)"/>
    <path class="cls-1" d="M5.81,742.35s0,0,0,0,0,0,0,0Z" transform="translate(-5.8 -86.41)"/>
  </g>
  <g id="boob_tattoo_black" data-name="boob tattoo black">
    <path class="cls-2" d="M343.66,474c8.51,4.94,7.7,19.28-6.46,19.93-11.41.3-17.74-13.39-7-19.9a18.4,18.4,0,0,0,8.31,1.21A17.61,17.61,0,0,0,343.66,474Z" transform="translate(-5.8 -86.41)"/>
    <path class="cls-3" d="M330.25,474h0a13.9,13.9,0,0,1,5.08-1.59,14.66,14.66,0,0,1,8.31,1.56,17.94,17.94,0,0,1-13.39,0Z" transform="translate(-5.8 -86.41)"/>
    <path class="cls-3" d="M335.58,472.33c.17-1.34,2.36-1.5,3.18-.64a.77.77,0,0,1,.23.38c.05.24,0,.24.07.36a1.62,1.62,0,0,0,.44.16c.39.15.72.33.64.67-.24.44-1.77.63-2.64.62a8,8,0,0,1-1.89-.11c-.55-.11-1.62-.45-1-1a2,2,0,0,1,.91-.37S335.6,472.36,335.58,472.33Z" transform="translate(-5.8 -86.41)"/>
  </g>
</svg>
