<svg xmlns="http://www.w3.org/2000/svg" xmlns:xlink="http://www.w3.org/1999/xlink" width="464.19" height="655.94" viewBox="0 0 464.19 655.94">
  <defs>
    <style>
      .cls-1 {
        fill: #231f20;
      }

      .cls-2, .cls-3 {
        stroke: #231f20;
        stroke-miterlimit: 10;
        stroke-width: 0.5px;
      }

      .cls-2 {
        fill: url(#linear-gradient);
      }

      .cls-3 {
        fill: #725ba7;
      }
    </style>
    <linearGradient id="linear-gradient" x1="324.58" y1="483.99" x2="349.16" y2="483.99" gradientUnits="userSpaceOnUse">
      <stop offset="0" stop-color="#7cc791"/>
      <stop offset="0.11" stop-color="#71c488"/>
      <stop offset="0.29" stop-color="#54bc71"/>
      <stop offset="0.3" stop-color="#52bb6f"/>
      <stop offset="0.52" stop-color="#0eb251"/>
      <stop offset="0.69" stop-color="#1ab24b"/>
    </linearGradient>
  </defs>
  <g id="Layer_185" data-name="Layer 185">
    <path class="cls-1" d="M470,86.44a0,0,0,0,0,0,0,0,0,0,0,0,0,0Z" transform="translate(-5.8 -86.41)"/>
    <path class="cls-1" d="M5.81,742.35s0,0,0,0,0,0,0,0Z" transform="translate(-5.8 -86.41)"/>
  </g>
  <g id="boob_tattoo_green" data-name="boob tattoo green">
    <path class="cls-2" d="M343.65,474c8.55,4.95,7.73,19.34-6.5,20-11.46.3-17.82-13.43-7-20a18.44,18.44,0,0,0,8.35,1.21A17.85,17.85,0,0,0,343.65,474Z" transform="translate(-5.8 -86.41)"/>
    <path class="cls-3" d="M330.17,474h0a14.06,14.06,0,0,1,5.11-1.6,14.8,14.8,0,0,1,8.34,1.57,18.1,18.1,0,0,1-13.45,0Z" transform="translate(-5.8 -86.41)"/>
    <path class="cls-3" d="M335.53,472.34c.17-1.35,2.36-1.51,3.19-.65a.77.77,0,0,1,.23.38c.05.24,0,.24.07.36a1.75,1.75,0,0,0,.44.17c.39.14.73.33.64.67s-1.78.63-2.64.62a8.14,8.14,0,0,1-1.91-.12c-.55-.1-1.62-.44-1-1a2,2,0,0,1,.91-.36S335.54,472.36,335.53,472.34Z" transform="translate(-5.8 -86.41)"/>
  </g>
</svg>
