<svg xmlns="http://www.w3.org/2000/svg" xmlns:xlink="http://www.w3.org/1999/xlink" width="565.11" height="551.24" viewBox="0 0 565.11 551.24">
  <defs>
    <style>
      .cls-1, .cls-2 {
        fill: none;
      }

      .cls-1, .cls-2, .cls-3, .cls-4 {
        stroke: #231f20;
        stroke-miterlimit: 10;
      }

      .cls-1 {
        stroke-width: 0px;
      }

      .cls-2 {
        stroke-width: 0.01px;
      }

      .cls-3, .cls-4 {
        stroke-width: 0.5px;
      }

      .cls-3 {
        fill: url(#linear-gradient);
      }

      .cls-4 {
        fill: #df8e7e;
      }
    </style>
    <linearGradient id="linear-gradient" x1="326.58" y1="487.69" x2="348.4" y2="477.98" gradientUnits="userSpaceOnUse">
      <stop offset="0" stop-color="#f1ccc5"/>
      <stop offset="0.18" stop-color="#eec1bb"/>
      <stop offset="0.3" stop-color="#ecb7b1"/>
      <stop offset="0.52" stop-color="#ecb7b0"/>
      <stop offset="0.69" stop-color="#ecb5ae"/>
    </linearGradient>
  </defs>
  <g id="Layer_115" data-name="Layer 115">
    <circle class="cls-1" cx="565.05" cy="0.06" r="0.06"/>
    <ellipse class="cls-2" cx="0.03" cy="550.79" rx="0.02" ry="0.45"/>
  </g>
  <g id="boob_tattoo_white" data-name="boob tattoo white">
    <path class="cls-3" d="M343.58,474c8.48,4.91,7.67,19.17-6.43,19.81-11.36.3-17.66-13.31-6.95-19.77a18.6,18.6,0,0,0,8.28,1.2A17.7,17.7,0,0,0,343.58,474Z" transform="translate(43.96 -137.04)"/>
    <path class="cls-4" d="M330.23,474h0a14.06,14.06,0,0,1,5.06-1.58,14.74,14.74,0,0,1,8.27,1.55,17.92,17.92,0,0,1-13.33,0Z" transform="translate(43.96 -137.04)"/>
    <path class="cls-4" d="M335.54,472.33c.17-1.33,2.34-1.49,3.17-.65a.85.85,0,0,1,.22.38c.05.24,0,.24.07.36a1.34,1.34,0,0,0,.44.16c.39.15.72.33.63.67s-1.76.62-2.62.61a8,8,0,0,1-1.88-.11c-.55-.11-1.61-.44-1-1a2,2,0,0,1,.9-.37S335.56,472.35,335.54,472.33Z" transform="translate(43.96 -137.04)"/>
  </g>
</svg>
