<svg xmlns="http://www.w3.org/2000/svg" width="464.19" height="655.94" viewBox="0 0 464.19 655.94">
  <defs>
    <style>
      .cls-1 {
        fill: #231f20;
      }

      .cls-2 {
        stroke: #000;
        stroke-miterlimit: 10;
      }
    </style>
  </defs>
  <g id="Layer_185" data-name="Layer 185">
    <path class="cls-1" d="M470,86.44a0,0,0,0,0,0,0,0,0,0,0,0,0,0Z" transform="translate(-5.8 -86.41)"/>
    <path class="cls-1" d="M5.81,742.35s0,0,0,0,0,0,0,0Z" transform="translate(-5.8 -86.41)"/>
  </g>
  <g id="left_eye_scar" data-name="left eye scar">
    <polygon class="cls-2" points="216.22 269.21 230.3 330.77 248.63 379.47 238.73 327.46 216.22 269.21"/>
    <polygon class="cls-2" points="227.7 266.92 242.73 330.33 259.52 374.94 251.32 326.82 227.7 266.92"/>
    <polygon class="cls-2" points="204.01 273.3 218.61 335.89 236.94 384.58 226.58 334.2 204.01 273.3"/>
  </g>
</svg>
