<svg xmlns="http://www.w3.org/2000/svg" width="464.19" height="655.94" viewBox="0 0 464.19 655.94">
  <defs>
    <style>
      .cls-1 {
        fill: #231f20;
      }

      .cls-2 {
        fill: #d3d3d3;
        stroke: #231f20;
        stroke-miterlimit: 10;
        stroke-width: 0.25px;
      }

      .cls-3 {
        fill: #fff;
      }
    </style>
  </defs>
  <g id="Layer_185" data-name="Layer 185">
    <path class="cls-1" d="M470,86.44a0,0,0,0,0,0,0,0,0,0,0,0,0,0Z" transform="translate(-5.8 -86.41)"/>
    <path class="cls-1" d="M5.81,742.35s0,0,0,0,0,0,0,0Z" transform="translate(-5.8 -86.41)"/>
  </g>
  <g id="nip_piercing" data-name="nip piercing">
    <circle class="cls-2" cx="246.89" cy="182.59" r="6.05"/>
    <g id="Layer_129" data-name="Layer 129">
      <path class="cls-3" d="M254.67,264.66c.58-.66,2.33.69,2.64,1.93.23.92.32,1.27-.7,1.27-.79,0-.63-1.2-1.09-1.62C254.87,265.65,253.77,265.68,254.67,264.66Z" transform="translate(-5.8 -86.41)"/>
    </g>
  </g>
</svg>
