<svg xmlns="http://www.w3.org/2000/svg" width="464.19" height="655.94" viewBox="0 0 464.19 655.94">
  <defs>
    <style>
      .cls-1 {
        fill: #231f20;
      }

      .cls-2 {
        fill: #808285;
        stroke: #231f20;
        stroke-miterlimit: 10;
      }

      .cls-3 {
        fill: #5c6960;
      }
    </style>
  </defs>
  <g id="Layer_185" data-name="Layer 185">
    <path class="cls-1" d="M470,86.44a0,0,0,0,0,0,0,0,0,0,0,0,0,0Z" transform="translate(-5.8 -86.41)"/>
    <path class="cls-1" d="M5.81,742.35s0,0,0,0,0,0,0,0Z" transform="translate(-5.8 -86.41)"/>
  </g>
  <g id="nipple_horns" data-name="nipple horns">
    <path id="right_horn" data-name="right horn" class="cls-2" d="M285.32,279c-8.85-2.09,32.31-119.34-63.26-52.62C192.15,247.28,313.53,56,334,296.14,334.14,298,321,287.46,285.32,279Z" transform="translate(-5.8 -86.41)"/>
    <path id="right_shadow" data-name="right shadow" class="cls-3" d="M285,278.4c-.79-.19-.57-4.18-.6-4.37-.88-5.89,10.25-55.2-7.72-66-9.42-5.65-26.72-2.16-55.88,18.59-19,13.5,88.67-111.67,79.64,54.58C300.34,283.31,299.2,281.79,285,278.4Z" transform="translate(-5.8 -86.41)"/>
    <path id="right_horn-2" data-name="right horn" class="cls-2" d="M143.14,297.24c-8.09,4.13-52.64-111.87-82.27.86C51.59,333.38,20.2,109,191.31,278.77,192.64,280.08,175.79,280.56,143.14,297.24Z" transform="translate(-5.8 -86.41)"/>
    <path id="right_shadow-2" data-name="right shadow" class="cls-3" d="M142.51,297c-.72.36-3.14-2.83-3.28-2.95-4.49-3.92-27.93-48.71-48.61-45.29-10.85,1.8-21.77,15.66-30.55,50.36-5.72,22.56-4.74-142.52,96-10C157.37,290.77,155.51,290.36,142.51,297Z" transform="translate(-5.8 -86.41)"/>
  </g>
</svg>
