<svg xmlns="http://www.w3.org/2000/svg" width="464.19" height="655.94" viewBox="0 0 464.19 655.94">
  <defs>
    <style>
      .cls-1 {
        fill: #231f20;
      }

      .cls-2 {
        fill: #545d50;
        stroke: #231f20;
        stroke-miterlimit: 10;
      }
    </style>
  </defs>
  <g id="Layer_185" data-name="Layer 185">
    <path class="cls-1" d="M470,86.44a0,0,0,0,0,0,0,0,0,0,0,0,0,0Z" transform="translate(-5.8 -86.41)"/>
    <path class="cls-1" d="M5.81,742.35s0,0,0,0,0,0,0,0Z" transform="translate(-5.8 -86.41)"/>
  </g>
  <g id="nip_ring" data-name="nip ring">
    <path class="cls-2" d="M235.67,258c-1.72-19,27.91-19.3,24,.93-.53,2.74-3,7.51-13.46,8.56-.61.06-1.88-3.63-.75-5.23,0,0,13.38-.21,8.23-10.34-2.74-5.4-12.92-3.42-12.43,5.18C241.29,257.53,236.83,257.77,235.67,258Z" transform="translate(-5.8 -86.41)"/>
  </g>
</svg>
