<svg xmlns="http://www.w3.org/2000/svg" width="565.11" height="551.24" viewBox="0 0 565.11 551.24">
  <defs>
    <style>
      .cls-1, .cls-2 {
        fill: none;
      }

      .cls-1, .cls-2, .cls-3 {
        stroke: #231f20;
        stroke-miterlimit: 10;
      }

      .cls-1 {
        stroke-width: 0px;
      }

      .cls-2 {
        stroke-width: 0.01px;
      }

      .cls-3 {
        fill: #808285;
      }

      .cls-4 {
        fill: #5c6960;
      }
    </style>
  </defs>
  <g id="Layer_115" data-name="Layer 115">
    <circle class="cls-1" cx="565.05" cy="0.06" r="0.06"/>
    <ellipse class="cls-2" cx="0.03" cy="550.79" rx="0.02" ry="0.45"/>
  </g>
  <g id="viking_horns" data-name="viking horns">
    <path id="left_horn" data-name="left horn" class="cls-3" d="M127.57,310.1c1.08-5.84-77.79,12.08-53.91-109,3.83-19.41-80.68,98,20.61,147.9C96,349.88,121.9,340.53,127.57,310.1Z" transform="translate(43.96 -137.04)"/>
    <path id="left_shadow" data-name="left shadow" class="cls-4" d="M127.13,310.32c1.66-6.09-77.93,12.54-54-108.49,3.82-19.4-44.56,98,46.21,126.13C121.08,328.51,123.8,322.5,127.13,310.32Z" transform="translate(43.96 -137.04)"/>
    <path id="right_horn" data-name="right horn" class="cls-3" d="M347.55,307.41c-1.09-5.83,77.79,12.08,53.9-109-3.83-19.41,80.68,98-20.6,147.9C379.17,347.19,353.22,337.85,347.55,307.41Z" transform="translate(43.96 -137.04)"/>
    <path id="right_shadow" data-name="right shadow" class="cls-4" d="M348,307.63c-1.66-6.08,77.93,12.54,54-108.49-3.83-19.4,44.55,98.05-46.21,126.13C354,325.82,351.31,319.82,348,307.63Z" transform="translate(43.96 -137.04)"/>
  </g>
</svg>
