<svg xmlns="http://www.w3.org/2000/svg" width="464.19" height="655.94" viewBox="0 0 464.19 655.94">
  <defs>
    <style>
      .cls-1 {
        fill: #231f20;
      }

      .cls-2 {
        fill: #d72d27;
        stroke-width: 1.8px;
      }

      .cls-2, .cls-3, .cls-4, .cls-5 {
        stroke: #231f20;
        stroke-miterlimit: 10;
      }

      .cls-3 {
        fill: #fff;
        stroke-width: 0.75px;
      }

      .cls-4, .cls-5 {
        fill: #015093;
      }

      .cls-4 {
        stroke-width: 0.25px;
      }

      .cls-5 {
        stroke-width: 0.5px;
      }
    </style>
  </defs>
  <g id="Layer_185" data-name="Layer 185">
    <path class="cls-1" d="M470,86.44a0,0,0,0,0,0,0,0,0,0,0,0,0,0Z" transform="translate(-5.8 -86.41)"/>
    <path class="cls-1" d="M5.81,742.35s0,0,0,0,0,0,0,0Z" transform="translate(-5.8 -86.41)"/>
  </g>
  <g id="sword">
    <rect id="base" class="cls-2" x="141.58" y="194.12" width="28.09" height="133.02" rx="4.21" transform="translate(-81.75 -22.05) rotate(-18.88)"/>
    <g id="grip">
      <path class="cls-3" d="M122.42,206.91,149,197.82Z" transform="translate(-5.8 -86.41)"/>
      <path class="cls-3" d="M123.79,210.93l26.58-9.08Z" transform="translate(-5.8 -86.41)"/>
      <path class="cls-3" d="M125.17,215l26.58-9.09Z" transform="translate(-5.8 -86.41)"/>
      <path class="cls-3" d="M126.55,219l26.57-9.09Z" transform="translate(-5.8 -86.41)"/>
      <path class="cls-3" d="M127.92,223l26.58-9.08Z" transform="translate(-5.8 -86.41)"/>
      <path class="cls-3" d="M129.3,227,155.88,218Z" transform="translate(-5.8 -86.41)"/>
      <path class="cls-3" d="M130.68,231.06,157.25,222Z" transform="translate(-5.8 -86.41)"/>
      <path class="cls-3" d="M132.05,235.09,158.63,226Z" transform="translate(-5.8 -86.41)"/>
      <path class="cls-3" d="M133.43,239.12,160,230Z" transform="translate(-5.8 -86.41)"/>
      <path class="cls-3" d="M134.81,243.14l26.57-9.08Z" transform="translate(-5.8 -86.41)"/>
      <path class="cls-3" d="M136.18,247.17l26.58-9.09Z" transform="translate(-5.8 -86.41)"/>
      <path class="cls-3" d="M136.18,247.17l26.58-9.09Z" transform="translate(-5.8 -86.41)"/>
      <path class="cls-3" d="M137.56,251.2l26.57-9.09Z" transform="translate(-5.8 -86.41)"/>
      <path class="cls-3" d="M138.94,255.22l26.57-9.08Z" transform="translate(-5.8 -86.41)"/>
      <path class="cls-3" d="M138.94,255.22l26.57-9.08Z" transform="translate(-5.8 -86.41)"/>
      <path class="cls-3" d="M140.31,259.25l26.58-9.09Z" transform="translate(-5.8 -86.41)"/>
      <path class="cls-3" d="M141.69,263.28l26.57-9.09Z" transform="translate(-5.8 -86.41)"/>
      <path class="cls-3" d="M141.69,263.28l26.57-9.09Z" transform="translate(-5.8 -86.41)"/>
      <path class="cls-3" d="M143.07,267.3l26.57-9.08Z" transform="translate(-5.8 -86.41)"/>
      <path class="cls-3" d="M144.44,271.33,171,262.24Z" transform="translate(-5.8 -86.41)"/>
      <path class="cls-3" d="M145.82,275.36l26.57-9.09Z" transform="translate(-5.8 -86.41)"/>
      <path class="cls-3" d="M147.2,279.38l26.57-9.08Z" transform="translate(-5.8 -86.41)"/>
      <path class="cls-3" d="M148.57,283.41l26.58-9.09Z" transform="translate(-5.8 -86.41)"/>
      <path class="cls-3" d="M150,287.44l26.57-9.09Z" transform="translate(-5.8 -86.41)"/>
      <path class="cls-3" d="M150,287.44l26.57-9.09Z" transform="translate(-5.8 -86.41)"/>
      <path class="cls-3" d="M151.33,291.46l26.57-9.08Z" transform="translate(-5.8 -86.41)"/>
      <path class="cls-3" d="M152.7,295.49l26.58-9.09Z" transform="translate(-5.8 -86.41)"/>
      <path class="cls-3" d="M152.7,295.49l26.58-9.09Z" transform="translate(-5.8 -86.41)"/>
      <path class="cls-3" d="M154.08,299.52l26.57-9.09Z" transform="translate(-5.8 -86.41)"/>
      <path class="cls-3" d="M155.46,303.54,182,294.46Z" transform="translate(-5.8 -86.41)"/>
      <path class="cls-3" d="M151.33,291.46l26.57-9.08Z" transform="translate(-5.8 -86.41)"/>
      <path class="cls-3" d="M152.7,295.49l26.58-9.09Z" transform="translate(-5.8 -86.41)"/>
      <path class="cls-3" d="M154.08,299.52l26.57-9.09Z" transform="translate(-5.8 -86.41)"/>
      <path class="cls-3" d="M154.08,299.52l26.57-9.09Z" transform="translate(-5.8 -86.41)"/>
      <path class="cls-3" d="M155.46,303.54,182,294.46Z" transform="translate(-5.8 -86.41)"/>
      <path class="cls-3" d="M156.83,307.57l26.58-9.09Z" transform="translate(-5.8 -86.41)"/>
      <path class="cls-3" d="M156.83,307.57l26.58-9.09Z" transform="translate(-5.8 -86.41)"/>
      <path class="cls-3" d="M158.21,311.59l26.57-9.08Z" transform="translate(-5.8 -86.41)"/>
      <path class="cls-3" d="M158.76,316l26.71-8.69Z" transform="translate(-5.8 -86.41)"/>
      <path class="cls-3" d="M158.76,316l26.71-8.69Z" transform="translate(-5.8 -86.41)"/>
      <path class="cls-3" d="M160.08,320.05l26.71-8.68Z" transform="translate(-5.8 -86.41)"/>
    </g>
    <g id="cloth">
      <g id="Layer_133" data-name="Layer 133">
        <path class="cls-4" d="M124.39,215.85c0,2-17.75-.56-23.74,2.13-4.36,2-16.89,2.16-22.41-.65-.29-.15-.27-1.81-.26-2.11,0-1.41,13.08,4.63,22.48.16,4.54-2.15,23.83-1.7,23.79-.64C124.23,215.14,124.39,215.27,124.39,215.85Z" transform="translate(-5.8 -86.41)"/>
        <path class="cls-4" d="M126.52,220.61c.18,2-7.91,7.39-18.26,5.48a72.23,72.23,0,0,0-16.64-1.52c-2.63.08-11.79,2.39-12.16,2.22a4.72,4.72,0,0,1-.7-2.13c0-1.54,7.95-2.81,13-3.12a69.17,69.17,0,0,1,17.1,1.19c6.4,1.11,10.12-.15,13.1-1.84,3.36-1.89,4.15-2.14,4.18-1.52C126.18,219.77,126.47,220,126.52,220.61Z" transform="translate(-5.8 -86.41)"/>
      </g>
      <path class="cls-5" d="M151.71,203.66c-7.81,8.33-25.95,2-28.16,9.7,0,.17,2.62,9.84,3.29,8.74,4.32-7.1,23.9-3.84,28-10.24C155.17,211.29,152.65,202.67,151.71,203.66Z" transform="translate(-5.8 -86.41)"/>
    </g>
  </g>
</svg>
