<svg xmlns="http://www.w3.org/2000/svg" xmlns:xlink="http://www.w3.org/1999/xlink" width="464.19" height="655.94" viewBox="0 0 464.19 655.94">
  <defs>
    <style>
      .cls-1 {
        fill: #231f20;
      }

      .cls-2, .cls-3 {
        stroke: #231f20;
        stroke-miterlimit: 10;
      }

      .cls-2 {
        stroke-width: 1px;
        fill: url(#linear-gradient);
      }

      .cls-3 {
        fill: #785936;
      }
    </style>
    <linearGradient id="linear-gradient" x1="61.47" y1="441.06" x2="413.66" y2="441.06" gradientUnits="userSpaceOnUse">
      <stop offset="0" stop-color="#af5a3c"/>
      <stop offset="0.09" stop-color="#a4583a"/>
      <stop offset="0.24" stop-color="#875234"/>
      <stop offset="0.3" stop-color="#794f31"/>
      <stop offset="0.52" stop-color="#6a4c2f"/>
      <stop offset="0.69" stop-color="#694a2d"/>
    </linearGradient>
  </defs>
  <g id="Layer_185" data-name="Layer 185">
    <path class="cls-1" d="M470,86.44a0,0,0,0,0,0,0,0,0,0,0,0,0,0Z" transform="translate(-5.8 -86.41)"/>
    <path class="cls-1" d="M5.81,742.35s0,0,0,0,0,0,0,0Z" transform="translate(-5.8 -86.41)"/>
  </g>
  <g id="boob_black" data-name="boob black">
    <path class="cls-2" d="M334.64,297.85c122.47,71,110.78,277-93,286.35C77.37,588.5-13.73,391.82,141.22,298.31a264.72,264.72,0,0,0,119.61,17.35A256.45,256.45,0,0,0,334.64,297.85Z" transform="translate(-5.8 -86.41)"/>
  </g>
  <g id="dark_nipple" data-name="dark nipple">
    <path class="cls-3" d="M141.6,298.14s0,0,0,0a201.17,201.17,0,0,1,73.15-22.8c58.75-6.57,103.85,14.26,119.51,22.35A256.68,256.68,0,0,1,240,316.48,257.44,257.44,0,0,1,141.6,298.14Z" transform="translate(-5.8 -86.41)"/>
    <path class="cls-3" d="M218.33,274.2c2.42-19.24,33.87-21.54,45.77-9.28.93,1,2.82,3,3.23,5.45.79,3.42.07,3.49,1,5.17,0,.57,5.7,2.25,6.33,2.39,5.63,2.07,10.44,4.7,9.19,9.57-3.39,6.27-25.49,9.05-37.89,8.89-11.86.33-19.75,0-27.28-1.62-7.93-1.54-23.24-6.41-14.23-14.45,3.29-3,9.54-4.78,13-5.28C218,275,218.59,274.56,218.33,274.2Z" transform="translate(-5.8 -86.41)"/>
  </g>
</svg>
