<svg xmlns="http://www.w3.org/2000/svg" xmlns:xlink="http://www.w3.org/1999/xlink" width="565.11" height="551.24" viewBox="0 0 565.11 551.24">
  <defs>
    <style>
      .cls-1, .cls-2 {
        fill: none;
      }

      .cls-1, .cls-2, .cls-3, .cls-4, .cls-5 {
        stroke: #231f20;
        stroke-miterlimit: 10;
      }

      .cls-1 {
        stroke-width: 0px;
      }

      .cls-2 {
        stroke-width: 0.01px;
      }

      .cls-3 {
        fill: #231f20;
        opacity: 0.85;
      }

      .cls-4 {
        stroke-width: 1px;
        fill: url(#linear-gradient);
      }

      .cls-5 {
        fill: #5e5245;
      }
    </style>
    <linearGradient id="linear-gradient" x1="61.47" y1="441.06" x2="413.66" y2="441.06" gradientUnits="userSpaceOnUse">
      <stop offset="0" stop-color="#af5a3c"/>
      <stop offset="0.09" stop-color="#a4583a"/>
      <stop offset="0.24" stop-color="#875234"/>
      <stop offset="0.3" stop-color="#794f31"/>
      <stop offset="0.52" stop-color="#6a4c2f"/>
      <stop offset="0.69" stop-color="#694a2d"/>
    </linearGradient>
  </defs>
  <g id="Layer_115" data-name="Layer 115">
    <circle class="cls-1" cx="565.05" cy="0.06" r="0.06"/>
    <ellipse class="cls-2" cx="0.03" cy="550.79" rx="0.02" ry="0.45"/>
  </g>
  <g id="shadow">
    <ellipse id="shadow-2" data-name="shadow" class="cls-3" cx="286.52" cy="491.78" rx="76.64" ry="9.95"/>
  </g>
  <g id="boob_black" data-name="boob black">
    <path class="cls-4" d="M334.64,297.85c122.47,71,110.78,277-93,286.35C77.37,588.5-13.73,391.82,141.22,298.31a264.72,264.72,0,0,0,119.61,17.35A256.45,256.45,0,0,0,334.64,297.85Z" transform="translate(43.96 -137.04)"/>
  </g>
  <g id="real_black_nipple" data-name="real black nipple">
    <path class="cls-5" d="M141.57,298.23s0,0,0,0a201.1,201.1,0,0,1,73.14-22.8c58.76-6.57,103.85,14.26,119.51,22.36a258.88,258.88,0,0,1-192.65.47Z" transform="translate(43.96 -137.04)"/>
    <path class="cls-5" d="M218.3,274.29c2.42-19.24,33.88-21.54,45.78-9.28.92,1,2.81,3,3.23,5.46.79,3.41.06,3.48,1,5.16,0,.57,5.7,2.25,6.34,2.39,5.63,2.07,10.44,4.71,9.18,9.57-3.38,6.28-25.49,9.06-37.88,8.9-11.87.33-19.76-.05-27.29-1.63-7.92-1.54-23.24-6.41-14.22-14.45,3.28-3,9.54-4.78,13-5.28C218,275.1,218.57,274.65,218.3,274.29Z" transform="translate(43.96 -137.04)"/>
  </g>
</svg>
