<svg xmlns="http://www.w3.org/2000/svg" width="464.19" height="655.94" viewBox="0 0 464.19 655.94">
  <defs>
    <style>
      .cls-1, .cls-3 {
        fill: #231f20;
      }

      .cls-2, .cls-4 {
        fill: #fff;
      }

      .cls-2, .cls-3 {
        stroke: #231f20;
      }

      .cls-2, .cls-3, .cls-4 {
        stroke-miterlimit: 10;
        stroke-width: 0.35px;
      }

      .cls-4 {
        stroke: #fff;
      }
    </style>
  </defs>
  <g id="Layer_185" data-name="Layer 185">
    <path class="cls-1" d="M470,86.44a0,0,0,0,0,0,0,0,0,0,0,0,0,0Z" transform="translate(-5.8 -86.41)"/>
    <path class="cls-1" d="M5.81,742.35s0,0,0,0,0,0,0,0Z" transform="translate(-5.8 -86.41)"/>
  </g>
  <g id="ying_yang_tattoo" data-name="ying yang tattoo">
    <circle class="cls-2" cx="272.83" cy="246.15" r="9.9"/>
    <path class="cls-3" d="M276.36,322.93c-5,1-7.15,11.1,1.11,10.08,6-.74,6.55,2.3,6.69,2.79,1.54,5.3-3.85,6.52-3.83,6.52C293.54,339.51,289.57,320.23,276.36,322.93Z" transform="translate(-5.8 -86.41)"/>
    <g id="Layer_170" data-name="Layer 170">
      <circle class="cls-3" cx="273.97" cy="251.12" r="1.14"/>
      <circle class="cls-4" cx="270.31" cy="241.65" r="1.14"/>
    </g>
  </g>
</svg>
