<svg xmlns="http://www.w3.org/2000/svg" width="464.19" height="655.94" viewBox="0 0 464.19 655.94">
  <defs>
    <style>
      .cls-1 {
        fill: #231f20;
      }

      .cls-2 {
        stroke: #000;
        stroke-width: 2.55px;
        opacity: 0.5;
      }

      .cls-2, .cls-3, .cls-4, .cls-5 {
        stroke-miterlimit: 10;
      }

      .cls-3, .cls-4, .cls-5 {
        fill: none;
      }

      .cls-3 {
        stroke: #e4e418;
        stroke-width: 1.26px;
      }

      .cls-4, .cls-5 {
        stroke: #e4e41c;
      }

      .cls-4 {
        stroke-width: 1.26px;
      }

      .cls-5 {
        stroke-width: 1.68px;
      }
    </style>
  </defs>
  <g id="Layer_185" data-name="Layer 185">
    <path class="cls-1" d="M470,86.44a0,0,0,0,0,0,0,0,0,0,0,0,0,0Z" transform="translate(-5.8 -86.41)"/>
    <path class="cls-1" d="M5.81,742.35s0,0,0,0,0,0,0,0Z" transform="translate(-5.8 -86.41)"/>
  </g>
  <g id="rayband_sunglasses" data-name="rayband sunglasses">
    <path class="cls-2" d="M277.8,412.52c0,27.18-17.46,49.21-39,49.21s-39-22-39-49.21S277.8,385.35,277.8,412.52Z" transform="translate(-5.8 -86.41)"/>
    <path class="cls-3" d="M278.5,412c0,28-17.81,50.65-39.78,50.65S199,440,199,412,278.5,384,278.5,412Z" transform="translate(-5.8 -86.41)"/>
    <path id="right_lens" data-name="right lens" class="cls-2" d="M365.87,412.52c0,27.18-17.46,49.21-39,49.21s-39-22-39-49.21S365.87,385.35,365.87,412.52Z" transform="translate(-5.8 -86.41)"/>
    <path id="right_rim" data-name="right rim" class="cls-3" d="M366.57,412c0,28-17.81,50.65-39.78,50.65S287,440,287,412,366.57,384,366.57,412Z" transform="translate(-5.8 -86.41)"/>
    <g id="connector">
      <path class="cls-3" d="M278.5,412a9.57,9.57,0,0,1,8.52.13" transform="translate(-5.8 -86.41)"/>
    </g>
    <path class="cls-4" d="M364.75,404.64C381.92,391.47,398.81,386.59,407,393a13,13,0,0,1,3.75,5" transform="translate(-5.8 -86.41)"/>
    <path class="cls-5" d="M199.19,408.67c-19.06-14-34.79-18.79-50.83-11.84-5.1,2.21-9.36,6.79-6.81,12.52" transform="translate(-5.8 -86.41)"/>
  </g>
</svg>
