<svg xmlns="http://www.w3.org/2000/svg" width="464.19" height="655.94" viewBox="0 0 464.19 655.94">
  <defs>
    <style>
      .cls-1 {
        fill: #231f20;
      }

      .cls-2, .cls-3 {
        fill: #333;
        stroke: #231f20;
        stroke-miterlimit: 10;
      }

      .cls-3 {
        opacity: 0.98;
      }
    </style>
  </defs>
  <g id="Layer_185" data-name="Layer 185">
    <path class="cls-1" d="M470,86.44a0,0,0,0,0,0,0,0,0,0,0,0,0,0Z" transform="translate(-5.8 -86.41)"/>
    <path class="cls-1" d="M5.81,742.35s0,0,0,0,0,0,0,0Z" transform="translate(-5.8 -86.41)"/>
  </g>
  <g id="sunglasses_wide_" data-name="sunglasses (wide)">
    <g id="connector">
      <rect class="cls-2" x="265.87" y="299.21" width="15.36" height="8.64"/>
    </g>
    <g id="ear_pieces" data-name="ear pieces">
      <path class="cls-2" d="M189.07,386.79c15.13-6.47-70.18-33.54-87.19-13.64-2.31,2.7-4.17,9.41-2.09,11.24,2.52,2.22,10.39-3.07,12.95-4.62C138.18,364.43,188.7,387,189.07,386.79Z" transform="translate(-5.8 -86.41)"/>
      <path class="cls-2" d="M371.69,379.61c-9.53-3.37,21.25-33.09,31.25-17.26,1.36,2.15,2.2,8.21.74,10.34-1.77,2.59-6.63-1-8.21-2C379.69,360.78,371.92,379.69,371.69,379.61Z" transform="translate(-5.8 -86.41)"/>
    </g>
    <path id="left_lens" data-name="left lens" class="cls-3" d="M193.71,451.15c19.9,18.47,53.19,15.47,71.71-4.4,19.51-20.95,18.29-56-2.2-73.46-23.34-19.85-63.05-9.48-77.87,16.71C174.93,408.42,176.52,435.2,193.71,451.15Z" transform="translate(-5.8 -86.41)"/>
    <g id="right_lens" data-name="right lens">
      <path class="cls-3" d="M370.09,444.85c18.47-19.9,15.47-53.2-4.4-71.71-20.95-19.52-56-18.29-73.46,2.2-19.85,23.34-9.48,63.05,16.71,77.87C327.36,463.62,354.14,462,370.09,444.85Z" transform="translate(-5.8 -86.41)"/>
    </g>
  </g>
</svg>
