<svg xmlns="http://www.w3.org/2000/svg" width="565.11" height="551.24" viewBox="0 0 565.11 551.24">
  <defs>
    <style>
      .cls-1, .cls-2, .cls-4, .cls-5, .cls-6 {
        fill: none;
      }

      .cls-1, .cls-2 {
        stroke: #231f20;
      }

      .cls-1, .cls-2, .cls-3, .cls-4, .cls-5, .cls-6 {
        stroke-miterlimit: 10;
      }

      .cls-1 {
        stroke-width: 0px;
      }

      .cls-2 {
        stroke-width: 0.01px;
      }

      .cls-3 {
        stroke: #000;
        stroke-width: 2.55px;
        opacity: 0.5;
      }

      .cls-4 {
        stroke: #e4e418;
        stroke-width: 1.26px;
      }

      .cls-5, .cls-6 {
        stroke: #e4e41c;
      }

      .cls-5 {
        stroke-width: 1.26px;
      }

      .cls-6 {
        stroke-width: 1.68px;
      }
    </style>
  </defs>
  <g id="Layer_115" data-name="Layer 115">
    <circle class="cls-1" cx="565.05" cy="0.06" r="0.06"/>
    <ellipse class="cls-2" cx="0.03" cy="550.79" rx="0.02" ry="0.45"/>
  </g>
  <g id="rayband_sunglasses" data-name="rayband sunglasses">
    <path class="cls-3" d="M277.8,412.52c0,27.18-17.46,49.21-39,49.21s-39-22-39-49.21S277.8,385.35,277.8,412.52Z" transform="translate(43.96 -137.04)"/>
    <path class="cls-4" d="M278.5,412c0,28-17.81,50.65-39.78,50.65S199,440,199,412,278.5,384,278.5,412Z" transform="translate(43.96 -137.04)"/>
    <path id="right_lens" data-name="right lens" class="cls-3" d="M365.87,412.52c0,27.18-17.46,49.21-39,49.21s-39-22-39-49.21S365.87,385.35,365.87,412.52Z" transform="translate(43.96 -137.04)"/>
    <path id="right_rim" data-name="right rim" class="cls-4" d="M366.57,412c0,28-17.81,50.65-39.78,50.65S287,440,287,412,366.57,384,366.57,412Z" transform="translate(43.96 -137.04)"/>
    <g id="connector">
      <path class="cls-4" d="M278.5,412a9.57,9.57,0,0,1,8.52.13" transform="translate(43.96 -137.04)"/>
    </g>
    <path class="cls-5" d="M364.75,404.64C381.92,391.47,398.81,386.59,407,393a13,13,0,0,1,3.75,5" transform="translate(43.96 -137.04)"/>
    <path class="cls-6" d="M199.19,408.67c-19.06-14-34.79-18.79-50.83-11.84-5.1,2.21-9.36,6.79-6.81,12.52" transform="translate(43.96 -137.04)"/>
  </g>
</svg>
