<svg xmlns="http://www.w3.org/2000/svg" width="565.11" height="551.24" viewBox="0 0 565.11 551.24">
  <defs>
    <style>
      .cls-1, .cls-2, .cls-5 {
        fill: none;
      }

      .cls-1, .cls-2, .cls-3, .cls-4, .cls-5 {
        stroke: #231f20;
        stroke-miterlimit: 10;
      }

      .cls-1 {
        stroke-width: 0px;
      }

      .cls-2 {
        stroke-width: 0.01px;
      }

      .cls-3 {
        fill: #231f20;
      }

      .cls-4 {
        fill: #3dbdee;
        opacity: 0.4;
      }
    </style>
  </defs>
  <g id="Layer_115" data-name="Layer 115">
    <circle class="cls-1" cx="565.05" cy="0.06" r="0.06"/>
    <ellipse class="cls-2" cx="0.03" cy="550.79" rx="0.02" ry="0.45"/>
  </g>
  <g id="nerd_glasses" data-name="nerd glasses">
    <g id="Layer_38" data-name="Layer 38">
      <rect class="cls-3" x="323.77" y="253.64" width="9.34" height="5.45"/>
    </g>
    <rect id="left_lens" data-name="left lens" class="cls-4" x="241.03" y="225.9" width="82.74" height="87.83"/>
    <rect id="left_rim" data-name="left rim" class="cls-5" x="241.03" y="225.9" width="82.74" height="87.83"/>
    <rect id="right_lens" data-name="right lens" class="cls-4" x="333.11" y="225.9" width="82.74" height="87.83"/>
    <rect id="right_rim" data-name="right rim" class="cls-5" x="333.11" y="225.9" width="82.74" height="87.83"/>
    <path id="left_ear" data-name="left ear" class="cls-5" d="M197.07,383.53c-32.27-23.76-64.59-30-79.47-17-2.93,2.54-6.81,11.92,4.08,14.64" transform="translate(43.96 -137.04)"/>
    <path id="right_ear" data-name="right ear" class="cls-5" d="M371.89,380.47c13-9.91,24.64-14.29,29.37-11,1,.72,2.15,2.09,2.42,5" transform="translate(43.96 -137.04)"/>
  </g>
</svg>
